<?xml version="1.0" standalone="no"?>
 <!DOCTYPE svg PUBLIC "-//W3C//DTD SVG 1.1//EN" 
 "http://www.w3.org/Graphics/SVG/1.1/DTD/svg11.dtd"> 
<svg
  xmlns:svg="http://www.w3.org/2000/svg"
  xmlns="http://www.w3.org/2000/svg"
  xmlns:xlink="http://www.w3.org/1999/xlink"
  version="1.1"
  width="29.700220cm" height="21.000720cm" viewBox="0 0 297002200 210007200">
<title>SVG Picture created as core-In3_Cu.svg date 2021/05/10 09:36:44 </title>
  <desc>Picture generated by PCBNEW </desc>
<g style="fill:#000000; fill-opacity:1.000000;stroke:#000000; stroke-opacity:1.000000;
stroke-linecap:round; stroke-linejoin:round;"
 transform="translate(0 0) scale(1 1)">
</g>
<g style="fill:#000000; fill-opacity:0.0; 
stroke:#000000; stroke-width:0.000000; stroke-opacity:1; 
stroke-linecap:round; stroke-linejoin:round;">
<g >
</g>
<g >
</g>
<g >
</g>
<g >
</g>
<g >
</g>
<g >
</g>
<g >
</g>
<g >
</g>
<g >
</g>
<g >
</g>
<g >
</g>
<g >
</g>
<g >
</g>
<g >
</g>
<g >
</g>
<g >
</g>
<g >
</g>
<g >
</g>
<g >
</g>
<g >
</g>
<g >
</g>
<g >
</g>
<g >
</g>
<g >
</g>
<g >
</g>
<g >
</g>
<g >
</g>
<g >
</g>
<g >
</g>
<g >
</g>
<g >
</g>
<g >
</g>
<g >
</g>
<g >
</g>
<g >
</g>
<g >
</g>
<g >
</g>
<g >
</g>
<g >
</g>
<g >
</g>
<g >
</g>
<g >
</g>
<g >
</g>
<g >
</g>
<g >
</g>
<g >
</g>
<g >
</g>
<g >
</g>
<g >
</g>
<g >
</g>
<g >
</g>
<g >
</g>
<g >
</g>
<g >
</g>
<g >
</g>
<g >
</g>
<g >
</g>
<g >
</g>
<g >
</g>
<g >
</g>
<g >
</g>
<g >
</g>
<g >
</g>
<g >
</g>
<g >
</g>
<g >
</g>
<g >
</g>
<g >
</g>
<g >
</g>
<g >
</g>
<g >
</g>
<g >
</g>
<g >
</g>
<g >
</g>
<g >
</g>
<g >
</g>
<g >
</g>
<g >
</g>
<g >
</g>
<g >
</g>
<g >
</g>
<g >
</g>
<g >
</g>
<g >
</g>
<g >
</g>
<g >
</g>
<g >
</g>
<g >
</g>
<g >
</g>
<g >
</g>
<g >
</g>
<g >
</g>
<g >
</g>
<g >
</g>
<g >
</g>
<g >
</g>
<g >
</g>
<g >
</g>
<g >
</g>
<g >
</g>
<g >
</g>
<g >
</g>
<g >
</g>
<g >
</g>
<g >
</g>
<g >
</g>
<g >
</g>
<g >
</g>
<g >
</g>
<g >
</g>
<g >
</g>
<g >
</g>
<g >
</g>
<g >
</g>
<g >
</g>
<g >
</g>
<g >
</g>
<g >
</g>
<g >
</g>
<g >
</g>
<g >
</g>
<g >
</g>
<g >
</g>
<g >
</g>
<g >
</g>
<g >
</g>
<g >
</g>
<g >
</g>
<g >
</g>
<g >
</g>
<g >
</g>
<g >
</g>
<g >
</g>
<g >
</g>
<g >
</g>
<g >
</g>
<g >
</g>
<g >
</g>
<g >
</g>
<g >
</g>
<g >
</g>
<g >
</g>
<g >
</g>
<g >
</g>
<g >
</g>
<g >
</g>
<g >
</g>
<g >
</g>
<g >
</g>
<g >
</g>
<g >
</g>
<g >
</g>
<g >
</g>
<g >
</g>
<g >
</g>
<g >
</g>
<g >
</g>
<g >
</g>
<g >
</g>
<g >
</g>
<g >
</g>
<g >
</g>
<g >
</g>
<g >
</g>
<g >
</g>
<g >
</g>
<g >
</g>
<g >
</g>
<g >
</g>
<g >
</g>
<g >
</g>
<g >
</g>
<g >
</g>
<g >
</g>
<g >
</g>
<g >
</g>
<g >
</g>
<g >
</g>
<g >
</g>
<g >
</g>
<g >
</g>
<g >
</g>
<g >
</g>
<g >
</g>
<g >
</g>
<g >
</g>
<g >
</g>
<g style="fill:#000000; fill-opacity:0.0; 
stroke:#000000; stroke-width:0.000000; stroke-opacity:1; 
stroke-linecap:round; stroke-linejoin:round;">
</g>
<g style="fill:#000000; fill-opacity:0.0; 
stroke:#000000; stroke-width:100000.000000; stroke-opacity:1; 
stroke-linecap:round; stroke-linejoin:round;">
<path d="M71250000 103140000
L71250000 105510000
" />
<path d="M67020000 106220000
L67020000 106020000
" />
<path d="M71340000 98130000
L71340000 98770000
" />
<path d="M69320000 105770000
L68830000 105770000
" />
<path d="M68470000 107010000
L67530000 107010000
" />
<path d="M68830000 105770000
L68700000 105900000
" />
<path d="M68700000 106780000
L68470000 107010000
" />
<path d="M67530000 107010000
L67330000 106810000
" />
<path d="M69420000 105670000
L69400000 105690000
" />
<path d="M69420000 105670000
L69320000 105770000
" />
<path d="M67330000 106810000
L67330000 106530000
" />
<path d="M71250000 105510000
L71090000 105670000
" />
<path d="M68700000 105900000
L68700000 106780000
" />
<path d="M71090000 105670000
L69420000 105670000
" />
<path d="M67330000 106530000
L67020000 106220000
" />
<path d="M66710000 105060000
L66710000 103220000
" />
<path d="M69220000 97380000
L69070000 97530000
" />
<path d="M67020000 105370000
L66710000 105060000
" />
<path d="M69070000 98780000
L69090000 98800000
" />
<path d="M69840000 97630000
L69590000 97380000
" />
<path d="M69590000 97380000
L69220000 97380000
" />
<path d="M69070000 97530000
L69070000 98780000
" />
<path d="M67670000 106020000
L67670000 106120000
" />
<path d="M67670000 106020000
L67670000 105770000
" />
<path d="M70440000 97880000
L70220000 97880000
" />
<path d="M67920000 105520000
L67920000 103270000
" />
<path d="M70220000 97880000
L70090000 98010000
" />
<path d="M70090000 98010000
L70090000 98790000
" />
<path d="M70580000 97740000
L70440000 97880000
" />
<path d="M70580000 97390000
L70580000 97740000
" />
<path d="M67670000 105770000
L67920000 105520000
" />
<path d="M70840000 97130000
L70580000 97390000
" />
<path d="M70080000 97770000
L69970000 97880000
" />
<path d="M70080000 96870000
L70080000 97770000
" />
<path d="M69710000 97880000
L69580000 98010000
" />
<path d="M69970000 97880000
L69710000 97880000
" />
<path d="M67670000 105370000
L67340000 105040000
" />
<path d="M67340000 105040000
L67340000 103210000
" />
<path d="M69580000 98010000
L69580000 98810000
" />
<path d="M69840000 96630000
L70080000 96870000
" />
<path d="M69300000 105480000
L69300000 103170000
" />
<path d="M68530000 105610000
L69170000 105610000
" />
<path d="M68320000 106020000
L68320000 105820000
" />
<path d="M69170000 105610000
L69300000 105480000
" />
<path d="M68320000 105820000
L68530000 105610000
" />
<path d="M70340000 98130000
L70340000 98770000
" />
<path d="M69280000 107500000
L69440000 107660000
" />
<path d="M69440000 107660000
L73000000 107660000
" />
<path d="M72590000 96510000
L72590000 98780000
" />
<path d="M68970000 106020000
L69280000 106330000
" />
<path d="M72460000 96380000
L72590000 96510000
" />
<path d="M73000000 107660000
L73210000 107450000
" />
<path d="M70590000 96380000
L72460000 96380000
" />
<path d="M69280000 106330000
L69280000 107500000
" />
<path d="M73210000 107450000
L73210000 103140000
" />
<path d="M70340000 96130000
L70590000 96380000
" />
<path d="M68580000 96530000
L68580000 98810000
" />
<path d="M69840000 96130000
L69830000 96130000
" />
<path d="M67240000 105710000
L66220000 105710000
" />
<path d="M66220000 105710000
L66020000 105510000
" />
<path d="M69840000 96130000
L69590000 96380000
" />
<path d="M68070000 105630000
L67980000 105720000
" />
<path d="M67850000 106350000
L67470000 106350000
" />
<path d="M69590000 96380000
L68730000 96380000
" />
<path d="M68070000 105190000
L68070000 105630000
" />
<path d="M66020000 105510000
L66020000 103030000
" />
<path d="M67980000 106220000
L67850000 106350000
" />
<path d="M68700000 105100000
L68160000 105100000
" />
<path d="M68730000 96380000
L68580000 96530000
" />
<path d="M67470000 106350000
L67330000 106210000
" />
<path d="M67330000 106210000
L67330000 105800000
" />
<path d="M67980000 105720000
L67980000 106220000
" />
<path d="M68970000 105370000
L68700000 105100000
" />
<path d="M67330000 105800000
L67240000 105710000
" />
<path d="M68160000 105100000
L68070000 105190000
" />
<path d="M69940000 106860000
L70080000 107000000
" />
<path d="M72550000 106810000
L72550000 103150000
" />
<path d="M72360000 107000000
L72550000 106810000
" />
<path d="M71840000 97630000
L72080000 97870000
" />
<path d="M69620000 106020000
L69940000 106340000
" />
<path d="M72080000 97870000
L72080000 98780000
" />
<path d="M69940000 106340000
L69940000 106860000
" />
<path d="M70080000 107000000
L72360000 107000000
" />
<path d="M70960000 97880000
L70710000 97880000
" />
<path d="M70340000 97130000
L70590000 96880000
" />
<path d="M70580000 98010000
L70580000 98790000
" />
<path d="M70950000 96880000
L71090000 97020000
" />
<path d="M71090000 97020000
L71090000 97750000
" />
<path d="M69950000 105040000
L69950000 103150000
" />
<path d="M69620000 105370000
L69950000 105040000
" />
<path d="M70710000 97880000
L70580000 98010000
" />
<path d="M70590000 96880000
L70950000 96880000
" />
<path d="M71090000 97750000
L70960000 97880000
" />
<path d="M70580000 106330000
L70580000 106340000
" />
<path d="M71340000 97130000
L71590000 97380000
" />
<path d="M71590000 97380000
L71590000 98780000
" />
<path d="M71760000 106340000
L71890000 106210000
" />
<path d="M71890000 106210000
L71890000 103160000
" />
<path d="M70580000 106340000
L71760000 106340000
" />
<path d="M70270000 106020000
L70580000 106330000
" />
<path d="M70840000 98130000
L70840000 98780000
" />
<path d="M70600000 105040000
L70600000 103140000
" />
<path d="M70270000 105370000
L70600000 105040000
" />
</g>
<g >
</g>
</g> 
</svg>
