<?xml version="1.0" standalone="no"?>
 <!DOCTYPE svg PUBLIC "-//W3C//DTD SVG 1.1//EN" 
 "http://www.w3.org/Graphics/SVG/1.1/DTD/svg11.dtd"> 
<svg
  xmlns:svg="http://www.w3.org/2000/svg"
  xmlns="http://www.w3.org/2000/svg"
  xmlns:xlink="http://www.w3.org/1999/xlink"
  version="1.1"
  width="29.700220cm" height="21.000720cm" viewBox="0 0 297002200 210007200">
<title>SVG Picture created as core-In4_Cu.svg date 2021/05/10 09:36:44 </title>
  <desc>Picture generated by PCBNEW </desc>
<g style="fill:#000000; fill-opacity:1.000000;stroke:#000000; stroke-opacity:1.000000;
stroke-linecap:round; stroke-linejoin:round;"
 transform="translate(0 0) scale(1 1)">
</g>
<g style="fill:#000000; fill-opacity:0.0; 
stroke:#000000; stroke-width:0.000000; stroke-opacity:1; 
stroke-linecap:round; stroke-linejoin:round;">
<g >
</g>
<g >
</g>
<g >
</g>
<g >
</g>
<g >
</g>
<g >
</g>
<g >
</g>
<g >
</g>
<g >
</g>
<g >
</g>
<g >
</g>
<g >
</g>
<g >
</g>
<g >
</g>
<g >
</g>
<g >
</g>
<g >
</g>
<g >
</g>
<g >
</g>
<g >
</g>
<g >
</g>
<g >
</g>
<g >
</g>
<g >
</g>
<g >
</g>
<g >
</g>
<g >
</g>
<g >
</g>
<g >
</g>
<g >
</g>
<g >
</g>
<g >
</g>
<g >
</g>
<g >
</g>
<g >
</g>
<g >
</g>
<g >
</g>
<g >
</g>
<g >
</g>
<g >
</g>
<g >
</g>
<g >
</g>
<g >
</g>
<g >
</g>
<g >
</g>
<g >
</g>
<g >
</g>
<g >
</g>
<g >
</g>
<g >
</g>
<g >
</g>
<g >
</g>
<g >
</g>
<g >
</g>
<g >
</g>
<g >
</g>
<g >
</g>
<g >
</g>
<g >
</g>
<g >
</g>
<g >
</g>
<g >
</g>
<g >
</g>
<g >
</g>
<g >
</g>
<g >
</g>
<g >
</g>
<g >
</g>
<g >
</g>
<g >
</g>
<g >
</g>
<g >
</g>
<g >
</g>
<g >
</g>
<g >
</g>
<g >
</g>
<g >
</g>
<g >
</g>
<g >
</g>
<g >
</g>
<g >
</g>
<g >
</g>
<g >
</g>
<g >
</g>
<g >
</g>
<g >
</g>
<g >
</g>
<g >
</g>
<g >
</g>
<g >
</g>
<g >
</g>
<g >
</g>
<g >
</g>
<g >
</g>
<g >
</g>
<g >
</g>
<g >
</g>
<g >
</g>
<g >
</g>
<g >
</g>
<g >
</g>
<g >
</g>
<g >
</g>
<g >
</g>
<g >
</g>
<g >
</g>
<g >
</g>
<g >
</g>
<g >
</g>
<g >
</g>
<g >
</g>
<g >
</g>
<g >
</g>
<g >
</g>
<g >
</g>
<g >
</g>
<g >
</g>
<g >
</g>
<g >
</g>
<g >
</g>
<g >
</g>
<g >
</g>
<g >
</g>
<g >
</g>
<g >
</g>
<g >
</g>
<g >
</g>
<g >
</g>
<g >
</g>
<g >
</g>
<g >
</g>
<g >
</g>
<g >
</g>
<g >
</g>
<g >
</g>
<g >
</g>
<g >
</g>
<g >
</g>
<g >
</g>
<g >
</g>
<g >
</g>
<g >
</g>
<g >
</g>
<g >
</g>
<g >
</g>
<g >
</g>
<g >
</g>
<g >
</g>
<g >
</g>
<g >
</g>
<g >
</g>
<g >
</g>
<g >
</g>
<g >
</g>
<g >
</g>
<g >
</g>
<g >
</g>
<g >
</g>
<g >
</g>
<g >
</g>
<g >
</g>
<g >
</g>
<g >
</g>
<g >
</g>
<g >
</g>
<g >
</g>
<g >
</g>
<g >
</g>
<g >
</g>
<g >
</g>
<g >
</g>
<g >
</g>
<g >
</g>
<g >
</g>
<g >
</g>
<g >
</g>
<g >
</g>
<g >
</g>
<g >
</g>
<g >
</g>
<g >
</g>
<g >
</g>
<g >
</g>
<g >
</g>
<g >
</g>
<g >
</g>
<g >
</g>
<g style="fill:#000000; fill-opacity:0.0; 
stroke:#000000; stroke-width:0.000000; stroke-opacity:1; 
stroke-linecap:round; stroke-linejoin:round;">
</g>
<g style="fill:#000000; fill-opacity:0.0; 
stroke:#000000; stroke-width:100000.000000; stroke-opacity:1; 
stroke-linecap:round; stroke-linejoin:round;">
<path d="M64940000 102880000
L66020000 103960000
" />
<path d="M63860000 92630000
L64110000 92880000
" />
<path d="M63840000 92630000
L63860000 92630000
" />
<path d="M64110000 92880000
L64420000 92880000
" />
<path d="M64420000 92880000
L64940000 93400000
" />
<path d="M66020000 103960000
L66020000 105130000
" />
<path d="M66020000 105130000
L66210000 105320000
" />
<path d="M66210000 105320000
L66330000 105320000
" />
<path d="M64940000 93400000
L64940000 102880000
" />
<path d="M62530000 94630000
L62840000 94630000
" />
<path d="M61980000 95180000
L62530000 94630000
" />
<path d="M65310000 105710000
L62380000 105710000
" />
<path d="M62540000 103360000
L62540000 100560000
" />
<path d="M62110000 105440000
L62110000 103790000
" />
<path d="M65710000 106110000
L65310000 105710000
" />
<path d="M62540000 100560000
L62520000 100560000
" />
<path d="M61980000 100020000
L61980000 95180000
" />
<path d="M62380000 105710000
L62110000 105440000
" />
<path d="M62520000 100560000
L61980000 100020000
" />
<path d="M62110000 103790000
L62540000 103360000
" />
<path d="M65710000 105930000
L65710000 106110000
" />
<path d="M65640000 105680000
L65820000 105680000
" />
<path d="M63080000 93380000
L63320000 93620000
" />
<path d="M66020000 107450000
L65780000 107690000
" />
<path d="M61110000 94790000
L62520000 93380000
" />
<path d="M65780000 107690000
L61740000 107690000
" />
<path d="M61110000 107060000
L61110000 94790000
" />
<path d="M62520000 93380000
L63080000 93380000
" />
<path d="M61740000 107690000
L61110000 107060000
" />
<path d="M65820000 105680000
L66020000 105880000
" />
<path d="M65330000 105370000
L65640000 105680000
" />
<path d="M66020000 105880000
L66020000 107450000
" />
<path d="M65070000 105370000
L65330000 105370000
" />
<path d="M61440000 95020000
L61440000 106290000
" />
<path d="M62850000 94120000
L62340000 94120000
" />
<path d="M62130000 106980000
L64560000 106980000
" />
<path d="M62340000 94120000
L61440000 95020000
" />
<path d="M64560000 106980000
L64730000 106810000
" />
<path d="M64730000 106810000
L64730000 106360000
" />
<path d="M61440000 106290000
L62130000 106980000
" />
<path d="M64730000 106360000
L65070000 106020000
" />
<path d="M63090000 96380000
L62840000 96630000
" />
<path d="M64430000 104070000
L64160000 103800000
" />
<path d="M64160000 96560000
L63980000 96380000
" />
<path d="M63980000 96380000
L63090000 96380000
" />
<path d="M64160000 103800000
L64160000 96560000
" />
<path d="M64740000 103890000
L64420000 103570000
" />
<path d="M64420000 104720000
L64740000 104400000
" />
<path d="M64100000 96140000
L63820000 96140000
" />
<path d="M64420000 96460000
L64100000 96140000
" />
<path d="M64740000 104400000
L64740000 103890000
" />
<path d="M64420000 103570000
L64420000 96460000
" />
<path d="M62660000 94880000
L63440000 94880000
" />
<path d="M63590000 94730000
L63590000 94380000
" />
<path d="M63340000 94130000
L63590000 94380000
" />
<path d="M62660000 94880000
L62220000 95320000
" />
<path d="M62220000 99790000
L62790000 100360000
" />
<path d="M63440000 94880000
L63590000 94730000
" />
<path d="M64150000 105070000
L64450000 105370000
" />
<path d="M63020000 105070000
L64150000 105070000
" />
<path d="M62790000 104840000
L63020000 105070000
" />
<path d="M62220000 95320000
L62220000 99790000
" />
<path d="M62790000 100360000
L62790000 104840000
" />
<path d="M61740000 95130000
L61740000 105850000
" />
<path d="M62570000 94390000
L62550000 94370000
" />
<path d="M64090000 94020000
L63950000 93880000
" />
<path d="M62500000 94370000
L61740000 95130000
" />
<path d="M63090000 94040000
L63090000 94260000
" />
<path d="M63840000 94630000
L64090000 94380000
" />
<path d="M64090000 94380000
L64090000 94020000
" />
<path d="M63950000 93880000
L63250000 93880000
" />
<path d="M63250000 93880000
L63090000 94040000
" />
<path d="M62550000 94370000
L62500000 94370000
" />
<path d="M64110000 106320000
L64420000 106010000
" />
<path d="M62960000 94390000
L62570000 94390000
" />
<path d="M63090000 94260000
L62960000 94390000
" />
<path d="M62210000 106320000
L64110000 106320000
" />
<path d="M61740000 105850000
L62210000 106320000
" />
<path d="M63590000 99730000
L63580000 99740000
" />
<path d="M63770000 104070000
L63770000 99920000
" />
<path d="M63590000 96880000
L63590000 99730000
" />
<path d="M63770000 99920000
L63580000 99730000
" />
<path d="M63340000 96630000
L63590000 96880000
" />
<path d="M62450000 96510000
L62450000 99490000
" />
<path d="M63440000 104430000
L63740000 104730000
" />
<path d="M62450000 99490000
L63440000 100480000
" />
<path d="M62840000 96130000
L62540000 96430000
" />
<path d="M62540000 96430000
L62530000 96430000
" />
<path d="M63440000 100480000
L63440000 104430000
" />
<path d="M62530000 96430000
L62450000 96510000
" />
<path d="M64670000 103000000
L65710000 104040000
" />
<path d="M64670000 96370000
L64670000 103000000
" />
<path d="M63580000 95870000
L64170000 95870000
" />
<path d="M64170000 95870000
L64670000 96370000
" />
<path d="M63340000 95630000
L63580000 95870000
" />
</g>
<g >
</g>
</g> 
</svg>
