<?xml version="1.0" standalone="no"?>
 <!DOCTYPE svg PUBLIC "-//W3C//DTD SVG 1.1//EN" 
 "http://www.w3.org/Graphics/SVG/1.1/DTD/svg11.dtd"> 
<svg
  xmlns:svg="http://www.w3.org/2000/svg"
  xmlns="http://www.w3.org/2000/svg"
  xmlns:xlink="http://www.w3.org/1999/xlink"
  version="1.1"
  width="29.700220cm" height="21.000720cm" viewBox="0 0 297002200 210007200">
<title>SVG Picture created as core-In2_Cu.svg date 2021/05/10 09:36:44 </title>
  <desc>Picture generated by PCBNEW </desc>
<g style="fill:#000000; fill-opacity:1.000000;stroke:#000000; stroke-opacity:1.000000;
stroke-linecap:round; stroke-linejoin:round;"
 transform="translate(0 0) scale(1 1)">
</g>
<g style="fill:#000000; fill-opacity:0.0; 
stroke:#000000; stroke-width:0.000000; stroke-opacity:1; 
stroke-linecap:round; stroke-linejoin:round;">
<g >
</g>
<g >
</g>
<g >
</g>
<g >
</g>
<g >
</g>
<g >
</g>
<g >
</g>
<g >
</g>
<g >
</g>
<g >
</g>
<g >
</g>
<g >
</g>
<g >
</g>
<g >
</g>
<g >
</g>
<g >
</g>
<g >
</g>
<g >
</g>
<g >
</g>
<g >
</g>
<g >
</g>
<g >
</g>
<g >
</g>
<g >
</g>
<g >
</g>
<g >
</g>
<g >
</g>
<g >
</g>
<g >
</g>
<g >
</g>
<g >
</g>
<g >
</g>
<g >
</g>
<g >
</g>
<g >
</g>
<g >
</g>
<g >
</g>
<g >
</g>
<g >
</g>
<g >
</g>
<g >
</g>
<g >
</g>
<g >
</g>
<g >
</g>
<g >
</g>
<g >
</g>
<g >
</g>
<g >
</g>
<g >
</g>
<g >
</g>
<g >
</g>
<g >
</g>
<g >
</g>
<g >
</g>
<g >
</g>
<g >
</g>
<g >
</g>
<g >
</g>
<g >
</g>
<g >
</g>
<g >
</g>
<g >
</g>
<g >
</g>
<g >
</g>
<g >
</g>
<g >
</g>
<g >
</g>
<g >
</g>
<g >
</g>
<g >
</g>
<g >
</g>
<g >
</g>
<g >
</g>
<g >
</g>
<g >
</g>
<g >
</g>
<g >
</g>
<g >
</g>
<g >
</g>
<g >
</g>
<g >
</g>
<g >
</g>
<g >
</g>
<g >
</g>
<g >
</g>
<g >
</g>
<g >
</g>
<g >
</g>
<g >
</g>
<g >
</g>
<g >
</g>
<g >
</g>
<g >
</g>
<g >
</g>
<g >
</g>
<g >
</g>
<g >
</g>
<g >
</g>
<g >
</g>
<g >
</g>
<g >
</g>
<g >
</g>
<g >
</g>
<g >
</g>
<g >
</g>
<g >
</g>
<g >
</g>
<g >
</g>
<g >
</g>
<g >
</g>
<g >
</g>
<g >
</g>
<g >
</g>
<g >
</g>
<g >
</g>
<g >
</g>
<g >
</g>
<g >
</g>
<g >
</g>
<g >
</g>
<g >
</g>
<g >
</g>
<g >
</g>
<g >
</g>
<g >
</g>
<g >
</g>
<g >
</g>
<g >
</g>
<g >
</g>
<g >
</g>
<g >
</g>
<g >
</g>
<g >
</g>
<g >
</g>
<g >
</g>
<g >
</g>
<g >
</g>
<g >
</g>
<g >
</g>
<g >
</g>
<g >
</g>
<g >
</g>
<g >
</g>
<g >
</g>
<g >
</g>
<g >
</g>
<g >
</g>
<g >
</g>
<g >
</g>
<g >
</g>
<g >
</g>
<g >
</g>
<g >
</g>
<g >
</g>
<g >
</g>
<g >
</g>
<g >
</g>
<g >
</g>
<g >
</g>
<g >
</g>
<g >
</g>
<g >
</g>
<g >
</g>
<g >
</g>
<g >
</g>
<g >
</g>
<g >
</g>
<g >
</g>
<g >
</g>
<g >
</g>
<g >
</g>
<g >
</g>
<g >
</g>
<g >
</g>
<g >
</g>
<g >
</g>
<g >
</g>
<g >
</g>
<g >
</g>
<g >
</g>
<g >
</g>
<g >
</g>
<g >
</g>
<g >
</g>
<g >
</g>
<g >
</g>
<g >
</g>
<g style="fill:#000000; fill-opacity:0.0; 
stroke:#000000; stroke-width:0.000000; stroke-opacity:1; 
stroke-linecap:round; stroke-linejoin:round;">
</g>
<g style="fill:#000000; fill-opacity:0.0; 
stroke:#000000; stroke-width:100000.000000; stroke-opacity:1; 
stroke-linecap:round; stroke-linejoin:round;">
<path d="M67580000 97760000
L67710000 97890000
" />
<path d="M67720000 96890000
L67580000 97030000
" />
<path d="M67710000 97890000
L67960000 97890000
" />
<path d="M67580000 97030000
L67580000 97760000
" />
<path d="M68330000 97140000
L68080000 96890000
" />
<path d="M68090000 98020000
L68090000 98800000
" />
<path d="M67960000 97890000
L68090000 98020000
" />
<path d="M68080000 96890000
L67720000 96890000
" />
<path d="M67830000 98140000
L67830000 98790000
" />
<path d="M67830000 97140000
L68090000 97400000
" />
<path d="M68090000 97750000
L68230000 97890000
" />
<path d="M68090000 97400000
L68090000 97750000
" />
<path d="M68580000 98020000
L68580000 98800000
" />
<path d="M68450000 97890000
L68580000 98020000
" />
<path d="M68230000 97890000
L68450000 97890000
" />
<path d="M66080000 96520000
L66080000 98790000
" />
<path d="M68330000 96140000
L68080000 96390000
" />
<path d="M66210000 96390000
L66080000 96520000
" />
<path d="M68080000 96390000
L66210000 96390000
" />
<path d="M69080000 96390000
L69940000 96390000
" />
<path d="M70090000 96540000
L70090000 98820000
" />
<path d="M69940000 96390000
L70090000 96540000
" />
<path d="M68830000 96140000
L69080000 96390000
" />
<path d="M68590000 97780000
L68700000 97890000
" />
<path d="M69090000 98020000
L69090000 98820000
" />
<path d="M68590000 96880000
L68590000 97780000
" />
<path d="M68830000 96640000
L68590000 96880000
" />
<path d="M68960000 97890000
L69090000 98020000
" />
<path d="M68700000 97890000
L68960000 97890000
" />
<path d="M67080000 97390000
L67080000 98790000
" />
<path d="M67330000 97140000
L67080000 97390000
" />
<path d="M68830000 97640000
L69080000 97390000
" />
<path d="M69080000 97390000
L69450000 97390000
" />
<path d="M69450000 97390000
L69600000 97540000
" />
<path d="M69600000 97540000
L69600000 98790000
" />
<path d="M68330000 98140000
L68330000 98780000
" />
<path d="M66590000 97880000
L66590000 98790000
" />
<path d="M66830000 97640000
L66590000 97880000
" />
<path d="M67330000 98140000
L67330000 98780000
" />
</g>
<g >
</g>
</g> 
</svg>
