<?xml version="1.0" standalone="no"?>
 <!DOCTYPE svg PUBLIC "-//W3C//DTD SVG 1.1//EN" 
 "http://www.w3.org/Graphics/SVG/1.1/DTD/svg11.dtd"> 
<svg
  xmlns:svg="http://www.w3.org/2000/svg"
  xmlns="http://www.w3.org/2000/svg"
  xmlns:xlink="http://www.w3.org/1999/xlink"
  version="1.1"
  width="29.700220cm" height="21.000720cm" viewBox="0 0 297002200 210007200">
<title>SVG Picture created as core-B_Silkscreen.svg date 2021/05/10 09:36:44 </title>
  <desc>Picture generated by PCBNEW </desc>
<g style="fill:#000000; fill-opacity:1.000000;stroke:#000000; stroke-opacity:1.000000;
stroke-linecap:round; stroke-linejoin:round;"
 transform="translate(0 0) scale(1 1)">
</g>
<g style="fill:#000000; fill-opacity:0.0; 
stroke:#000000; stroke-width:0.000000; stroke-opacity:1; 
stroke-linecap:round; stroke-linejoin:round;">
</g>
<g style="fill:#000000; fill-opacity:0.0; 
stroke:#000000; stroke-width:150000.000000; stroke-opacity:1; 
stroke-linecap:round; stroke-linejoin:round;">
<text x="119725000.000000" y="90330000.000000"
transform="scale(-1 1) translate(-239450000.000000 0)"
textLength="1566905.000000" font-size="1333333.000000" lengthAdjust="spacingAndGlyphs"
text-anchor="middle" opacity="0">L8</text>
<g class="stroked-text"><desc>L8</desc>
<path d="M119891666 90282380
L120367857 90282380
L120367857 89282380
" />
<path d="M119415476 89710952
L119510714 89663333
L119558333 89615714
L119605952 89520476
L119605952 89472857
L119558333 89377619
L119510714 89330000
L119415476 89282380
L119225000 89282380
L119129761 89330000
L119082142 89377619
L119034523 89472857
L119034523 89520476
L119082142 89615714
L119129761 89663333
L119225000 89710952
L119415476 89710952
L119510714 89758571
L119558333 89806190
L119605952 89901428
L119605952 90091904
L119558333 90187142
L119510714 90234761
L119415476 90282380
L119225000 90282380
L119129761 90234761
L119082142 90187142
L119034523 90091904
L119034523 89901428
L119082142 89806190
L119129761 89758571
L119225000 89710952
" />
</g><text x="96625000.000000" y="96451816.000000"
transform="scale(-1 1) translate(-193250000.000000 0)"
textLength="2709762.000000" font-size="1333333.000000" lengthAdjust="spacingAndGlyphs"
text-anchor="middle" opacity="0">R46</text>
<g class="stroked-text"><desc>R46</desc>
<path d="M97267857 96404196
L97601190 95928006
" />
<path d="M97839285 96404196
L97839285 95404196
L97458333 95404196
L97363095 95451816
L97315476 95499435
L97267857 95594673
L97267857 95737530
L97315476 95832768
L97363095 95880387
L97458333 95928006
L97839285 95928006
" />
<path d="M96410714 95737530
L96410714 96404196
" />
<path d="M96648809 95356577
L96886904 96070863
L96267857 96070863
" />
<path d="M95458333 95404196
L95648809 95404196
L95744047 95451816
L95791666 95499435
L95886904 95642292
L95934523 95832768
L95934523 96213720
L95886904 96308958
L95839285 96356577
L95744047 96404196
L95553571 96404196
L95458333 96356577
L95410714 96308958
L95363095 96213720
L95363095 95975625
L95410714 95880387
L95458333 95832768
L95553571 95785149
L95744047 95785149
L95839285 95832768
L95886904 95880387
L95934523 95975625
" />
</g><text x="102451000.000000" y="91660000.000000"
transform="scale(-1 1) translate(-204902000.000000 0)"
textLength="2709762.000000" font-size="1333333.000000" lengthAdjust="spacingAndGlyphs"
text-anchor="middle" opacity="0">R63</text>
<g class="stroked-text"><desc>R63</desc>
<path d="M103093857 91612380
L103427190 91136190
" />
<path d="M103665285 91612380
L103665285 90612380
L103284333 90612380
L103189095 90660000
L103141476 90707619
L103093857 90802857
L103093857 90945714
L103141476 91040952
L103189095 91088571
L103284333 91136190
L103665285 91136190
" />
<path d="M102236714 90612380
L102427190 90612380
L102522428 90660000
L102570047 90707619
L102665285 90850476
L102712904 91040952
L102712904 91421904
L102665285 91517142
L102617666 91564761
L102522428 91612380
L102331952 91612380
L102236714 91564761
L102189095 91517142
L102141476 91421904
L102141476 91183809
L102189095 91088571
L102236714 91040952
L102331952 90993333
L102522428 90993333
L102617666 91040952
L102665285 91088571
L102712904 91183809
" />
<path d="M101808142 90612380
L101189095 90612380
L101522428 90993333
L101379571 90993333
L101284333 91040952
L101236714 91088571
L101189095 91183809
L101189095 91421904
L101236714 91517142
L101284333 91564761
L101379571 91612380
L101665285 91612380
L101760523 91564761
L101808142 91517142
" />
</g><text x="170799334.000000" y="157406000.000000"
transform="scale(-1 1) translate(-341598668.000000 0)"
textLength="1757381.000000" font-size="1333333.000000" lengthAdjust="spacingAndGlyphs"
text-anchor="middle" opacity="0">C4</text>
<g class="stroked-text"><desc>C4</desc>
<path d="M170966000 157263142
L171013619 157310761
L171156476 157358380
L171251714 157358380
L171394572 157310761
L171489810 157215523
L171537429 157120285
L171585048 156929809
L171585048 156786952
L171537429 156596476
L171489810 156501238
L171394572 156406000
L171251714 156358380
L171156476 156358380
L171013619 156406000
L170966000 156453619
" />
<path d="M170108857 156691714
L170108857 157358380
" />
<path d="M170346953 156310761
L170585048 157025047
L169966000 157025047
" />
</g><g transform="rotate(-90.000000 112285000.000000 95080000.000000)">
<text x="112285000.000000" y="95580000.000000"
transform="scale(-1 1) translate(-224570000.000000 0)"
textLength="2709762.000000" font-size="1333333.000000" lengthAdjust="spacingAndGlyphs"
text-anchor="middle" opacity="0">C71</text>
</g>
<g class="stroked-text"><desc>C71</desc>
<path d="M112642142 94437142
L112689761 94389523
L112737380 94246666
L112737380 94151428
L112689761 94008571
L112594523 93913333
L112499285 93865714
L112308809 93818095
L112165952 93818095
L111975476 93865714
L111880238 93913333
L111785000 94008571
L111737380 94151428
L111737380 94246666
L111785000 94389523
L111832619 94437142
" />
<path d="M111737380 94770476
L111737380 95437142
L112737380 95008571
" />
<path d="M112737380 96341904
L112737380 95770476
" />
<path d="M112737380 96056190
L111737380 96056190
L111880238 95960952
L111975476 95865714
L112023095 95770476
" />
</g><text x="105725000.000000" y="91560000.000000"
transform="scale(-1 1) translate(-211450000.000000 0)"
textLength="2709762.000000" font-size="1333333.000000" lengthAdjust="spacingAndGlyphs"
text-anchor="middle" opacity="0">C82</text>
<g class="stroked-text"><desc>C82</desc>
<path d="M106367857 91417142
L106415476 91464761
L106558333 91512380
L106653571 91512380
L106796428 91464761
L106891666 91369523
L106939285 91274285
L106986904 91083809
L106986904 90940952
L106939285 90750476
L106891666 90655238
L106796428 90560000
L106653571 90512380
L106558333 90512380
L106415476 90560000
L106367857 90607619
" />
<path d="M105796428 90940952
L105891666 90893333
L105939285 90845714
L105986904 90750476
L105986904 90702857
L105939285 90607619
L105891666 90560000
L105796428 90512380
L105605952 90512380
L105510714 90560000
L105463095 90607619
L105415476 90702857
L105415476 90750476
L105463095 90845714
L105510714 90893333
L105605952 90940952
L105796428 90940952
L105891666 90988571
L105939285 91036190
L105986904 91131428
L105986904 91321904
L105939285 91417142
L105891666 91464761
L105796428 91512380
L105605952 91512380
L105510714 91464761
L105463095 91417142
L105415476 91321904
L105415476 91131428
L105463095 91036190
L105510714 90988571
L105605952 90940952
" />
<path d="M105034523 90607619
L104986904 90560000
L104891666 90512380
L104653571 90512380
L104558333 90560000
L104510714 90607619
L104463095 90702857
L104463095 90798095
L104510714 90940952
L105082142 91512380
L104463095 91512380
" />
</g><g transform="rotate(-90.000000 111345000.000000 91650000.000000)">
<text x="111345000.000000" y="92150000.000000"
transform="scale(-1 1) translate(-222690000.000000 0)"
textLength="2709762.000000" font-size="1333333.000000" lengthAdjust="spacingAndGlyphs"
text-anchor="middle" opacity="0">R68</text>
</g>
<g class="stroked-text"><desc>R68</desc>
<path d="M111797380 91007142
L111321190 90673809
" />
<path d="M111797380 90435714
L110797380 90435714
L110797380 90816666
L110845000 90911904
L110892619 90959523
L110987857 91007142
L111130714 91007142
L111225952 90959523
L111273571 90911904
L111321190 90816666
L111321190 90435714
" />
<path d="M110797380 91864285
L110797380 91673809
L110845000 91578571
L110892619 91530952
L111035476 91435714
L111225952 91388095
L111606904 91388095
L111702142 91435714
L111749761 91483333
L111797380 91578571
L111797380 91769047
L111749761 91864285
L111702142 91911904
L111606904 91959523
L111368809 91959523
L111273571 91911904
L111225952 91864285
L111178333 91769047
L111178333 91578571
L111225952 91483333
L111273571 91435714
L111368809 91388095
" />
<path d="M111225952 92530952
L111178333 92435714
L111130714 92388095
L111035476 92340476
L110987857 92340476
L110892619 92388095
L110845000 92435714
L110797380 92530952
L110797380 92721428
L110845000 92816666
L110892619 92864285
L110987857 92911904
L111035476 92911904
L111130714 92864285
L111178333 92816666
L111225952 92721428
L111225952 92530952
L111273571 92435714
L111321190 92388095
L111416428 92340476
L111606904 92340476
L111702142 92388095
L111749761 92435714
L111797380 92530952
L111797380 92721428
L111749761 92816666
L111702142 92864285
L111606904 92911904
L111416428 92911904
L111321190 92864285
L111273571 92816666
L111225952 92721428
" />
</g><g transform="rotate(-90.000000 113235000.000000 95080000.000000)">
<text x="113235000.000000" y="95580000.000000"
transform="scale(-1 1) translate(-226470000.000000 0)"
textLength="2709762.000000" font-size="1333333.000000" lengthAdjust="spacingAndGlyphs"
text-anchor="middle" opacity="0">C75</text>
</g>
<g class="stroked-text"><desc>C75</desc>
<path d="M113592142 94437142
L113639761 94389523
L113687380 94246666
L113687380 94151428
L113639761 94008571
L113544523 93913333
L113449285 93865714
L113258809 93818095
L113115952 93818095
L112925476 93865714
L112830238 93913333
L112735000 94008571
L112687380 94151428
L112687380 94246666
L112735000 94389523
L112782619 94437142
" />
<path d="M112687380 94770476
L112687380 95437142
L113687380 95008571
" />
<path d="M112687380 96294285
L112687380 95818095
L113163571 95770476
L113115952 95818095
L113068333 95913333
L113068333 96151428
L113115952 96246666
L113163571 96294285
L113258809 96341904
L113496904 96341904
L113592142 96294285
L113639761 96246666
L113687380 96151428
L113687380 95913333
L113639761 95818095
L113592142 95770476
" />
</g><text x="102451000.000000" y="96460000.000000"
transform="scale(-1 1) translate(-204902000.000000 0)"
textLength="2709762.000000" font-size="1333333.000000" lengthAdjust="spacingAndGlyphs"
text-anchor="middle" opacity="0">R57</text>
<g class="stroked-text"><desc>R57</desc>
<path d="M103093857 96412380
L103427190 95936190
" />
<path d="M103665285 96412380
L103665285 95412380
L103284333 95412380
L103189095 95460000
L103141476 95507619
L103093857 95602857
L103093857 95745714
L103141476 95840952
L103189095 95888571
L103284333 95936190
L103665285 95936190
" />
<path d="M102189095 95412380
L102665285 95412380
L102712904 95888571
L102665285 95840952
L102570047 95793333
L102331952 95793333
L102236714 95840952
L102189095 95888571
L102141476 95983809
L102141476 96221904
L102189095 96317142
L102236714 96364761
L102331952 96412380
L102570047 96412380
L102665285 96364761
L102712904 96317142
" />
<path d="M101808142 95412380
L101141476 95412380
L101570047 96412380
" />
</g><text x="105475000.000000" y="91580000.000000"
transform="scale(-1 1) translate(-210950000.000000 0)"
textLength="2709762.000000" font-size="1333333.000000" lengthAdjust="spacingAndGlyphs"
text-anchor="middle" opacity="0">R66</text>
<g class="stroked-text"><desc>R66</desc>
<path d="M106117857 91532380
L106451190 91056190
" />
<path d="M106689285 91532380
L106689285 90532380
L106308333 90532380
L106213095 90580000
L106165476 90627619
L106117857 90722857
L106117857 90865714
L106165476 90960952
L106213095 91008571
L106308333 91056190
L106689285 91056190
" />
<path d="M105260714 90532380
L105451190 90532380
L105546428 90580000
L105594047 90627619
L105689285 90770476
L105736904 90960952
L105736904 91341904
L105689285 91437142
L105641666 91484761
L105546428 91532380
L105355952 91532380
L105260714 91484761
L105213095 91437142
L105165476 91341904
L105165476 91103809
L105213095 91008571
L105260714 90960952
L105355952 90913333
L105546428 90913333
L105641666 90960952
L105689285 91008571
L105736904 91103809
" />
<path d="M104308333 90532380
L104498809 90532380
L104594047 90580000
L104641666 90627619
L104736904 90770476
L104784523 90960952
L104784523 91341904
L104736904 91437142
L104689285 91484761
L104594047 91532380
L104403571 91532380
L104308333 91484761
L104260714 91437142
L104213095 91341904
L104213095 91103809
L104260714 91008571
L104308333 90960952
L104403571 90913333
L104594047 90913333
L104689285 90960952
L104736904 91008571
L104784523 91103809
" />
</g><text x="96625000.000000" y="95649089.000000"
transform="scale(-1 1) translate(-193250000.000000 0)"
textLength="2709762.000000" font-size="1333333.000000" lengthAdjust="spacingAndGlyphs"
text-anchor="middle" opacity="0">R53</text>
<g class="stroked-text"><desc>R53</desc>
<path d="M97267857 95601469
L97601190 95125279
" />
<path d="M97839285 95601469
L97839285 94601469
L97458333 94601469
L97363095 94649089
L97315476 94696708
L97267857 94791946
L97267857 94934803
L97315476 95030041
L97363095 95077660
L97458333 95125279
L97839285 95125279
" />
<path d="M96363095 94601469
L96839285 94601469
L96886904 95077660
L96839285 95030041
L96744047 94982422
L96505952 94982422
L96410714 95030041
L96363095 95077660
L96315476 95172898
L96315476 95410993
L96363095 95506231
L96410714 95553850
L96505952 95601469
L96744047 95601469
L96839285 95553850
L96886904 95506231
" />
<path d="M95982142 94601469
L95363095 94601469
L95696428 94982422
L95553571 94982422
L95458333 95030041
L95410714 95077660
L95363095 95172898
L95363095 95410993
L95410714 95506231
L95458333 95553850
L95553571 95601469
L95839285 95601469
L95934523 95553850
L95982142 95506231
" />
</g><text x="96625000.000000" y="97254543.000000"
transform="scale(-1 1) translate(-193250000.000000 0)"
textLength="2709762.000000" font-size="1333333.000000" lengthAdjust="spacingAndGlyphs"
text-anchor="middle" opacity="0">R45</text>
<g class="stroked-text"><desc>R45</desc>
<path d="M97267857 97206923
L97601190 96730733
" />
<path d="M97839285 97206923
L97839285 96206923
L97458333 96206923
L97363095 96254543
L97315476 96302162
L97267857 96397400
L97267857 96540257
L97315476 96635495
L97363095 96683114
L97458333 96730733
L97839285 96730733
" />
<path d="M96410714 96540257
L96410714 97206923
" />
<path d="M96648809 96159304
L96886904 96873590
L96267857 96873590
" />
<path d="M95410714 96206923
L95886904 96206923
L95934523 96683114
L95886904 96635495
L95791666 96587876
L95553571 96587876
L95458333 96635495
L95410714 96683114
L95363095 96778352
L95363095 97016447
L95410714 97111685
L95458333 97159304
L95553571 97206923
L95791666 97206923
L95886904 97159304
L95934523 97111685
" />
</g><text x="99675000.000000" y="89900000.000000"
transform="scale(-1 1) translate(-199350000.000000 0)"
textLength="2709762.000000" font-size="1333333.000000" lengthAdjust="spacingAndGlyphs"
text-anchor="middle" opacity="0">R69</text>
<g class="stroked-text"><desc>R69</desc>
<path d="M100317857 89852380
L100651190 89376190
" />
<path d="M100889285 89852380
L100889285 88852380
L100508333 88852380
L100413095 88900000
L100365476 88947619
L100317857 89042857
L100317857 89185714
L100365476 89280952
L100413095 89328571
L100508333 89376190
L100889285 89376190
" />
<path d="M99460714 88852380
L99651190 88852380
L99746428 88900000
L99794047 88947619
L99889285 89090476
L99936904 89280952
L99936904 89661904
L99889285 89757142
L99841666 89804761
L99746428 89852380
L99555952 89852380
L99460714 89804761
L99413095 89757142
L99365476 89661904
L99365476 89423809
L99413095 89328571
L99460714 89280952
L99555952 89233333
L99746428 89233333
L99841666 89280952
L99889285 89328571
L99936904 89423809
" />
<path d="M98889285 89852380
L98698809 89852380
L98603571 89804761
L98555952 89757142
L98460714 89614285
L98413095 89423809
L98413095 89042857
L98460714 88947619
L98508333 88900000
L98603571 88852380
L98794047 88852380
L98889285 88900000
L98936904 88947619
L98984523 89042857
L98984523 89280952
L98936904 89376190
L98889285 89423809
L98794047 89471428
L98603571 89471428
L98508333 89423809
L98460714 89376190
L98413095 89280952
" />
</g><text x="96625000.000000" y="98859997.000000"
transform="scale(-1 1) translate(-193250000.000000 0)"
textLength="2709762.000000" font-size="1333333.000000" lengthAdjust="spacingAndGlyphs"
text-anchor="middle" opacity="0">R49</text>
<g class="stroked-text"><desc>R49</desc>
<path d="M97267857 98812377
L97601190 98336187
" />
<path d="M97839285 98812377
L97839285 97812377
L97458333 97812377
L97363095 97859997
L97315476 97907616
L97267857 98002854
L97267857 98145711
L97315476 98240949
L97363095 98288568
L97458333 98336187
L97839285 98336187
" />
<path d="M96410714 98145711
L96410714 98812377
" />
<path d="M96648809 97764758
L96886904 98479044
L96267857 98479044
" />
<path d="M95839285 98812377
L95648809 98812377
L95553571 98764758
L95505952 98717139
L95410714 98574282
L95363095 98383806
L95363095 98002854
L95410714 97907616
L95458333 97859997
L95553571 97812377
L95744047 97812377
L95839285 97859997
L95886904 97907616
L95934523 98002854
L95934523 98240949
L95886904 98336187
L95839285 98383806
L95744047 98431425
L95553571 98431425
L95458333 98383806
L95410714 98336187
L95363095 98240949
" />
</g><text x="96625000.000000" y="90030000.000000"
transform="scale(-1 1) translate(-193250000.000000 0)"
textLength="2709762.000000" font-size="1333333.000000" lengthAdjust="spacingAndGlyphs"
text-anchor="middle" opacity="0">R65</text>
<g class="stroked-text"><desc>R65</desc>
<path d="M97267857 89982380
L97601190 89506190
" />
<path d="M97839285 89982380
L97839285 88982380
L97458333 88982380
L97363095 89030000
L97315476 89077619
L97267857 89172857
L97267857 89315714
L97315476 89410952
L97363095 89458571
L97458333 89506190
L97839285 89506190
" />
<path d="M96410714 88982380
L96601190 88982380
L96696428 89030000
L96744047 89077619
L96839285 89220476
L96886904 89410952
L96886904 89791904
L96839285 89887142
L96791666 89934761
L96696428 89982380
L96505952 89982380
L96410714 89934761
L96363095 89887142
L96315476 89791904
L96315476 89553809
L96363095 89458571
L96410714 89410952
L96505952 89363333
L96696428 89363333
L96791666 89410952
L96839285 89458571
L96886904 89553809
" />
<path d="M95410714 88982380
L95886904 88982380
L95934523 89458571
L95886904 89410952
L95791666 89363333
L95553571 89363333
L95458333 89410952
L95410714 89458571
L95363095 89553809
L95363095 89791904
L95410714 89887142
L95458333 89934761
L95553571 89982380
L95791666 89982380
L95886904 89934761
L95934523 89887142
" />
</g><g transform="rotate(-90.000000 112285000.000000 91670000.000000)">
<text x="112285000.000000" y="92170000.000000"
transform="scale(-1 1) translate(-224570000.000000 0)"
textLength="2709762.000000" font-size="1333333.000000" lengthAdjust="spacingAndGlyphs"
text-anchor="middle" opacity="0">C86</text>
</g>
<g class="stroked-text"><desc>C86</desc>
<path d="M112642142 91027142
L112689761 90979523
L112737380 90836666
L112737380 90741428
L112689761 90598571
L112594523 90503333
L112499285 90455714
L112308809 90408095
L112165952 90408095
L111975476 90455714
L111880238 90503333
L111785000 90598571
L111737380 90741428
L111737380 90836666
L111785000 90979523
L111832619 91027142
" />
<path d="M112165952 91598571
L112118333 91503333
L112070714 91455714
L111975476 91408095
L111927857 91408095
L111832619 91455714
L111785000 91503333
L111737380 91598571
L111737380 91789047
L111785000 91884285
L111832619 91931904
L111927857 91979523
L111975476 91979523
L112070714 91931904
L112118333 91884285
L112165952 91789047
L112165952 91598571
L112213571 91503333
L112261190 91455714
L112356428 91408095
L112546904 91408095
L112642142 91455714
L112689761 91503333
L112737380 91598571
L112737380 91789047
L112689761 91884285
L112642142 91931904
L112546904 91979523
L112356428 91979523
L112261190 91931904
L112213571 91884285
L112165952 91789047
" />
<path d="M111737380 92836666
L111737380 92646190
L111785000 92550952
L111832619 92503333
L111975476 92408095
L112165952 92360476
L112546904 92360476
L112642142 92408095
L112689761 92455714
L112737380 92550952
L112737380 92741428
L112689761 92836666
L112642142 92884285
L112546904 92931904
L112308809 92931904
L112213571 92884285
L112165952 92836666
L112118333 92741428
L112118333 92550952
L112165952 92455714
L112213571 92408095
L112308809 92360476
" />
</g><g transform="rotate(-90.000000 129154000.000000 93050000.000000)">
<text x="129154000.000000" y="93550000.000000"
transform="scale(-1 1) translate(-258308000.000000 0)"
textLength="2709762.000000" font-size="1333333.000000" lengthAdjust="spacingAndGlyphs"
text-anchor="middle" opacity="0">C68</text>
</g>
<g class="stroked-text"><desc>C68</desc>
<path d="M129511142 92407142
L129558761 92359523
L129606380 92216666
L129606380 92121428
L129558761 91978571
L129463523 91883333
L129368285 91835714
L129177809 91788095
L129034952 91788095
L128844476 91835714
L128749238 91883333
L128654000 91978571
L128606380 92121428
L128606380 92216666
L128654000 92359523
L128701619 92407142
" />
<path d="M128606380 93264285
L128606380 93073809
L128654000 92978571
L128701619 92930952
L128844476 92835714
L129034952 92788095
L129415904 92788095
L129511142 92835714
L129558761 92883333
L129606380 92978571
L129606380 93169047
L129558761 93264285
L129511142 93311904
L129415904 93359523
L129177809 93359523
L129082571 93311904
L129034952 93264285
L128987333 93169047
L128987333 92978571
L129034952 92883333
L129082571 92835714
L129177809 92788095
" />
<path d="M129034952 93930952
L128987333 93835714
L128939714 93788095
L128844476 93740476
L128796857 93740476
L128701619 93788095
L128654000 93835714
L128606380 93930952
L128606380 94121428
L128654000 94216666
L128701619 94264285
L128796857 94311904
L128844476 94311904
L128939714 94264285
L128987333 94216666
L129034952 94121428
L129034952 93930952
L129082571 93835714
L129130190 93788095
L129225428 93740476
L129415904 93740476
L129511142 93788095
L129558761 93835714
L129606380 93930952
L129606380 94121428
L129558761 94216666
L129511142 94264285
L129415904 94311904
L129225428 94311904
L129130190 94264285
L129082571 94216666
L129034952 94121428
" />
</g><text x="96625000.000000" y="91635454.000000"
transform="scale(-1 1) translate(-193250000.000000 0)"
textLength="2709762.000000" font-size="1333333.000000" lengthAdjust="spacingAndGlyphs"
text-anchor="middle" opacity="0">R60</text>
<g class="stroked-text"><desc>R60</desc>
<path d="M97267857 91587834
L97601190 91111644
" />
<path d="M97839285 91587834
L97839285 90587834
L97458333 90587834
L97363095 90635454
L97315476 90683073
L97267857 90778311
L97267857 90921168
L97315476 91016406
L97363095 91064025
L97458333 91111644
L97839285 91111644
" />
<path d="M96410714 90587834
L96601190 90587834
L96696428 90635454
L96744047 90683073
L96839285 90825930
L96886904 91016406
L96886904 91397358
L96839285 91492596
L96791666 91540215
L96696428 91587834
L96505952 91587834
L96410714 91540215
L96363095 91492596
L96315476 91397358
L96315476 91159263
L96363095 91064025
L96410714 91016406
L96505952 90968787
L96696428 90968787
L96791666 91016406
L96839285 91064025
L96886904 91159263
" />
<path d="M95696428 90587834
L95601190 90587834
L95505952 90635454
L95458333 90683073
L95410714 90778311
L95363095 90968787
L95363095 91206882
L95410714 91397358
L95458333 91492596
L95505952 91540215
L95601190 91587834
L95696428 91587834
L95791666 91540215
L95839285 91492596
L95886904 91397358
L95934523 91206882
L95934523 90968787
L95886904 90778311
L95839285 90683073
L95791666 90635454
L95696428 90587834
" />
</g><text x="105525000.000000" y="93230000.000000"
transform="scale(-1 1) translate(-211050000.000000 0)"
textLength="2709762.000000" font-size="1333333.000000" lengthAdjust="spacingAndGlyphs"
text-anchor="middle" opacity="0">R70</text>
<g class="stroked-text"><desc>R70</desc>
<path d="M106167857 93182380
L106501190 92706190
" />
<path d="M106739285 93182380
L106739285 92182380
L106358333 92182380
L106263095 92230000
L106215476 92277619
L106167857 92372857
L106167857 92515714
L106215476 92610952
L106263095 92658571
L106358333 92706190
L106739285 92706190
" />
<path d="M105834523 92182380
L105167857 92182380
L105596428 93182380
" />
<path d="M104596428 92182380
L104501190 92182380
L104405952 92230000
L104358333 92277619
L104310714 92372857
L104263095 92563333
L104263095 92801428
L104310714 92991904
L104358333 93087142
L104405952 93134761
L104501190 93182380
L104596428 93182380
L104691666 93134761
L104739285 93087142
L104786904 92991904
L104834523 92801428
L104834523 92563333
L104786904 92372857
L104739285 92277619
L104691666 92230000
L104596428 92182380
" />
</g><g transform="rotate(-90.000000 113245000.000000 91650000.000000)">
<text x="113245000.000000" y="92150000.000000"
transform="scale(-1 1) translate(-226490000.000000 0)"
textLength="2709762.000000" font-size="1333333.000000" lengthAdjust="spacingAndGlyphs"
text-anchor="middle" opacity="0">R71</text>
</g>
<g class="stroked-text"><desc>R71</desc>
<path d="M113697380 91007142
L113221190 90673809
" />
<path d="M113697380 90435714
L112697380 90435714
L112697380 90816666
L112745000 90911904
L112792619 90959523
L112887857 91007142
L113030714 91007142
L113125952 90959523
L113173571 90911904
L113221190 90816666
L113221190 90435714
" />
<path d="M112697380 91340476
L112697380 92007142
L113697380 91578571
" />
<path d="M113697380 92911904
L113697380 92340476
" />
<path d="M113697380 92626190
L112697380 92626190
L112840238 92530952
L112935476 92435714
L112983095 92340476
" />
</g><text x="97050000.000000" y="88670000.000000"
transform="scale(-1 1) translate(-194100000.000000 0)"
textLength="2709762.000000" font-size="1333333.000000" lengthAdjust="spacingAndGlyphs"
text-anchor="middle" opacity="0">C81</text>
<g class="stroked-text"><desc>C81</desc>
<path d="M97692857 88527142
L97740476 88574761
L97883333 88622380
L97978571 88622380
L98121428 88574761
L98216666 88479523
L98264285 88384285
L98311904 88193809
L98311904 88050952
L98264285 87860476
L98216666 87765238
L98121428 87670000
L97978571 87622380
L97883333 87622380
L97740476 87670000
L97692857 87717619
" />
<path d="M97121428 88050952
L97216666 88003333
L97264285 87955714
L97311904 87860476
L97311904 87812857
L97264285 87717619
L97216666 87670000
L97121428 87622380
L96930952 87622380
L96835714 87670000
L96788095 87717619
L96740476 87812857
L96740476 87860476
L96788095 87955714
L96835714 88003333
L96930952 88050952
L97121428 88050952
L97216666 88098571
L97264285 88146190
L97311904 88241428
L97311904 88431904
L97264285 88527142
L97216666 88574761
L97121428 88622380
L96930952 88622380
L96835714 88574761
L96788095 88527142
L96740476 88431904
L96740476 88241428
L96788095 88146190
L96835714 88098571
L96930952 88050952
" />
<path d="M95788095 88622380
L96359523 88622380
" />
<path d="M96073809 88622380
L96073809 87622380
L96169047 87765238
L96264285 87860476
L96359523 87908095
" />
</g><text x="96605000.000000" y="90842727.000000"
transform="scale(-1 1) translate(-193210000.000000 0)"
textLength="2709762.000000" font-size="1333333.000000" lengthAdjust="spacingAndGlyphs"
text-anchor="middle" opacity="0">C84</text>
<g class="stroked-text"><desc>C84</desc>
<path d="M97247857 90699869
L97295476 90747488
L97438333 90795107
L97533571 90795107
L97676428 90747488
L97771666 90652250
L97819285 90557012
L97866904 90366536
L97866904 90223679
L97819285 90033203
L97771666 89937965
L97676428 89842727
L97533571 89795107
L97438333 89795107
L97295476 89842727
L97247857 89890346
" />
<path d="M96676428 90223679
L96771666 90176060
L96819285 90128441
L96866904 90033203
L96866904 89985584
L96819285 89890346
L96771666 89842727
L96676428 89795107
L96485952 89795107
L96390714 89842727
L96343095 89890346
L96295476 89985584
L96295476 90033203
L96343095 90128441
L96390714 90176060
L96485952 90223679
L96676428 90223679
L96771666 90271298
L96819285 90318917
L96866904 90414155
L96866904 90604631
L96819285 90699869
L96771666 90747488
L96676428 90795107
L96485952 90795107
L96390714 90747488
L96343095 90699869
L96295476 90604631
L96295476 90414155
L96343095 90318917
L96390714 90271298
L96485952 90223679
" />
<path d="M95438333 90128441
L95438333 90795107
" />
<path d="M95676428 89747488
L95914523 90461774
L95295476 90461774
" />
</g><g transform="rotate(-90.000000 123418000.000000 93050000.000000)">
<text x="123418000.000000" y="93550000.000000"
transform="scale(-1 1) translate(-246836000.000000 0)"
textLength="1805000.000000" font-size="1333333.000000" lengthAdjust="spacingAndGlyphs"
text-anchor="middle" opacity="0">U7</text>
</g>
<g class="stroked-text"><desc>U7</desc>
<path d="M122870380 92288095
L123679904 92288095
L123775142 92335714
L123822761 92383333
L123870380 92478571
L123870380 92669047
L123822761 92764285
L123775142 92811904
L123679904 92859523
L122870380 92859523
" />
<path d="M122870380 93240476
L122870380 93907142
L123870380 93478571
" />
</g><g transform="rotate(-90.000000 102525000.000000 98030000.000000)">
<text x="102525000.000000" y="98530000.000000"
transform="scale(-1 1) translate(-205050000.000000 0)"
textLength="1805000.000000" font-size="1333333.000000" lengthAdjust="spacingAndGlyphs"
text-anchor="middle" opacity="0">U5</text>
</g>
<g class="stroked-text"><desc>U5</desc>
<path d="M101977380 97268095
L102786904 97268095
L102882142 97315714
L102929761 97363333
L102977380 97458571
L102977380 97649047
L102929761 97744285
L102882142 97791904
L102786904 97839523
L101977380 97839523
" />
<path d="M101977380 98791904
L101977380 98315714
L102453571 98268095
L102405952 98315714
L102358333 98410952
L102358333 98649047
L102405952 98744285
L102453571 98791904
L102548809 98839523
L102786904 98839523
L102882142 98791904
L102929761 98744285
L102977380 98649047
L102977380 98410952
L102929761 98315714
L102882142 98268095
" />
</g><text x="99925000.000000" y="91530000.000000"
transform="scale(-1 1) translate(-199850000.000000 0)"
textLength="2709762.000000" font-size="1333333.000000" lengthAdjust="spacingAndGlyphs"
text-anchor="middle" opacity="0">C87</text>
<g class="stroked-text"><desc>C87</desc>
<path d="M100567857 91387142
L100615476 91434761
L100758333 91482380
L100853571 91482380
L100996428 91434761
L101091666 91339523
L101139285 91244285
L101186904 91053809
L101186904 90910952
L101139285 90720476
L101091666 90625238
L100996428 90530000
L100853571 90482380
L100758333 90482380
L100615476 90530000
L100567857 90577619
" />
<path d="M99996428 90910952
L100091666 90863333
L100139285 90815714
L100186904 90720476
L100186904 90672857
L100139285 90577619
L100091666 90530000
L99996428 90482380
L99805952 90482380
L99710714 90530000
L99663095 90577619
L99615476 90672857
L99615476 90720476
L99663095 90815714
L99710714 90863333
L99805952 90910952
L99996428 90910952
L100091666 90958571
L100139285 91006190
L100186904 91101428
L100186904 91291904
L100139285 91387142
L100091666 91434761
L99996428 91482380
L99805952 91482380
L99710714 91434761
L99663095 91387142
L99615476 91291904
L99615476 91101428
L99663095 91006190
L99710714 90958571
L99805952 90910952
" />
<path d="M99282142 90482380
L98615476 90482380
L99044047 91482380
" />
</g><text x="102451000.000000" y="94860000.000000"
transform="scale(-1 1) translate(-204902000.000000 0)"
textLength="2709762.000000" font-size="1333333.000000" lengthAdjust="spacingAndGlyphs"
text-anchor="middle" opacity="0">R54</text>
<g class="stroked-text"><desc>R54</desc>
<path d="M103093857 94812380
L103427190 94336190
" />
<path d="M103665285 94812380
L103665285 93812380
L103284333 93812380
L103189095 93860000
L103141476 93907619
L103093857 94002857
L103093857 94145714
L103141476 94240952
L103189095 94288571
L103284333 94336190
L103665285 94336190
" />
<path d="M102189095 93812380
L102665285 93812380
L102712904 94288571
L102665285 94240952
L102570047 94193333
L102331952 94193333
L102236714 94240952
L102189095 94288571
L102141476 94383809
L102141476 94621904
L102189095 94717142
L102236714 94764761
L102331952 94812380
L102570047 94812380
L102665285 94764761
L102712904 94717142
" />
<path d="M101284333 94145714
L101284333 94812380
" />
<path d="M101522428 93764761
L101760523 94479047
L101141476 94479047
" />
</g><text x="102451000.000000" y="98860000.000000"
transform="scale(-1 1) translate(-204902000.000000 0)"
textLength="2709762.000000" font-size="1333333.000000" lengthAdjust="spacingAndGlyphs"
text-anchor="middle" opacity="0">R52</text>
<g class="stroked-text"><desc>R52</desc>
<path d="M103093857 98812380
L103427190 98336190
" />
<path d="M103665285 98812380
L103665285 97812380
L103284333 97812380
L103189095 97860000
L103141476 97907619
L103093857 98002857
L103093857 98145714
L103141476 98240952
L103189095 98288571
L103284333 98336190
L103665285 98336190
" />
<path d="M102189095 97812380
L102665285 97812380
L102712904 98288571
L102665285 98240952
L102570047 98193333
L102331952 98193333
L102236714 98240952
L102189095 98288571
L102141476 98383809
L102141476 98621904
L102189095 98717142
L102236714 98764761
L102331952 98812380
L102570047 98812380
L102665285 98764761
L102712904 98717142
" />
<path d="M101760523 97907619
L101712904 97860000
L101617666 97812380
L101379571 97812380
L101284333 97860000
L101236714 97907619
L101189095 98002857
L101189095 98098095
L101236714 98240952
L101808142 98812380
L101189095 98812380
" />
</g><text x="96625000.000000" y="92438181.000000"
transform="scale(-1 1) translate(-193250000.000000 0)"
textLength="2709762.000000" font-size="1333333.000000" lengthAdjust="spacingAndGlyphs"
text-anchor="middle" opacity="0">R61</text>
<g class="stroked-text"><desc>R61</desc>
<path d="M97267857 92390561
L97601190 91914371
" />
<path d="M97839285 92390561
L97839285 91390561
L97458333 91390561
L97363095 91438181
L97315476 91485800
L97267857 91581038
L97267857 91723895
L97315476 91819133
L97363095 91866752
L97458333 91914371
L97839285 91914371
" />
<path d="M96410714 91390561
L96601190 91390561
L96696428 91438181
L96744047 91485800
L96839285 91628657
L96886904 91819133
L96886904 92200085
L96839285 92295323
L96791666 92342942
L96696428 92390561
L96505952 92390561
L96410714 92342942
L96363095 92295323
L96315476 92200085
L96315476 91961990
L96363095 91866752
L96410714 91819133
L96505952 91771514
L96696428 91771514
L96791666 91819133
L96839285 91866752
L96886904 91961990
" />
<path d="M95363095 92390561
L95934523 92390561
" />
<path d="M95648809 92390561
L95648809 91390561
L95744047 91533419
L95839285 91628657
L95934523 91676276
" />
</g><text x="96625000.000000" y="98057270.000000"
transform="scale(-1 1) translate(-193250000.000000 0)"
textLength="2709762.000000" font-size="1333333.000000" lengthAdjust="spacingAndGlyphs"
text-anchor="middle" opacity="0">R50</text>
<g class="stroked-text"><desc>R50</desc>
<path d="M97267857 98009650
L97601190 97533460
" />
<path d="M97839285 98009650
L97839285 97009650
L97458333 97009650
L97363095 97057270
L97315476 97104889
L97267857 97200127
L97267857 97342984
L97315476 97438222
L97363095 97485841
L97458333 97533460
L97839285 97533460
" />
<path d="M96363095 97009650
L96839285 97009650
L96886904 97485841
L96839285 97438222
L96744047 97390603
L96505952 97390603
L96410714 97438222
L96363095 97485841
L96315476 97581079
L96315476 97819174
L96363095 97914412
L96410714 97962031
L96505952 98009650
L96744047 98009650
L96839285 97962031
L96886904 97914412
" />
<path d="M95696428 97009650
L95601190 97009650
L95505952 97057270
L95458333 97104889
L95410714 97200127
L95363095 97390603
L95363095 97628698
L95410714 97819174
L95458333 97914412
L95505952 97962031
L95601190 98009650
L95696428 98009650
L95791666 97962031
L95839285 97914412
L95886904 97819174
L95934523 97628698
L95934523 97390603
L95886904 97200127
L95839285 97104889
L95791666 97057270
L95696428 97009650
" />
</g><g transform="rotate(-90.000000 109033000.000000 93388000.000000)">
<text x="109033000.000000" y="93888000.000000"
transform="scale(-1 1) translate(-218066000.000000 0)"
textLength="2709762.000000" font-size="1333333.000000" lengthAdjust="spacingAndGlyphs"
text-anchor="middle" opacity="0">C79</text>
</g>
<g class="stroked-text"><desc>C79</desc>
<path d="M109390142 92745142
L109437761 92697523
L109485380 92554666
L109485380 92459428
L109437761 92316571
L109342523 92221333
L109247285 92173714
L109056809 92126095
L108913952 92126095
L108723476 92173714
L108628238 92221333
L108533000 92316571
L108485380 92459428
L108485380 92554666
L108533000 92697523
L108580619 92745142
" />
<path d="M108485380 93078476
L108485380 93745142
L109485380 93316571
" />
<path d="M109485380 94173714
L109485380 94364190
L109437761 94459428
L109390142 94507047
L109247285 94602285
L109056809 94649904
L108675857 94649904
L108580619 94602285
L108533000 94554666
L108485380 94459428
L108485380 94268952
L108533000 94173714
L108580619 94126095
L108675857 94078476
L108913952 94078476
L109009190 94126095
L109056809 94173714
L109104428 94268952
L109104428 94459428
L109056809 94554666
L109009190 94602285
L108913952 94649904
" />
</g><text x="102431000.000000" y="93270000.000000"
transform="scale(-1 1) translate(-204862000.000000 0)"
textLength="2709762.000000" font-size="1333333.000000" lengthAdjust="spacingAndGlyphs"
text-anchor="middle" opacity="0">C77</text>
<g class="stroked-text"><desc>C77</desc>
<path d="M103073857 93127142
L103121476 93174761
L103264333 93222380
L103359571 93222380
L103502428 93174761
L103597666 93079523
L103645285 92984285
L103692904 92793809
L103692904 92650952
L103645285 92460476
L103597666 92365238
L103502428 92270000
L103359571 92222380
L103264333 92222380
L103121476 92270000
L103073857 92317619
" />
<path d="M102740523 92222380
L102073857 92222380
L102502428 93222380
" />
<path d="M101788142 92222380
L101121476 92222380
L101550047 93222380
" />
</g><text x="97325000.000000" y="99670000.000000"
transform="scale(-1 1) translate(-194650000.000000 0)"
textLength="2709762.000000" font-size="1333333.000000" lengthAdjust="spacingAndGlyphs"
text-anchor="middle" opacity="0">C69</text>
<g class="stroked-text"><desc>C69</desc>
<path d="M97967857 99527142
L98015476 99574761
L98158333 99622380
L98253571 99622380
L98396428 99574761
L98491666 99479523
L98539285 99384285
L98586904 99193809
L98586904 99050952
L98539285 98860476
L98491666 98765238
L98396428 98670000
L98253571 98622380
L98158333 98622380
L98015476 98670000
L97967857 98717619
" />
<path d="M97110714 98622380
L97301190 98622380
L97396428 98670000
L97444047 98717619
L97539285 98860476
L97586904 99050952
L97586904 99431904
L97539285 99527142
L97491666 99574761
L97396428 99622380
L97205952 99622380
L97110714 99574761
L97063095 99527142
L97015476 99431904
L97015476 99193809
L97063095 99098571
L97110714 99050952
L97205952 99003333
L97396428 99003333
L97491666 99050952
L97539285 99098571
L97586904 99193809
" />
<path d="M96539285 99622380
L96348809 99622380
L96253571 99574761
L96205952 99527142
L96110714 99384285
L96063095 99193809
L96063095 98812857
L96110714 98717619
L96158333 98670000
L96253571 98622380
L96444047 98622380
L96539285 98670000
L96586904 98717619
L96634523 98812857
L96634523 99050952
L96586904 99146190
L96539285 99193809
L96444047 99241428
L96253571 99241428
L96158333 99193809
L96110714 99146190
L96063095 99050952
" />
</g><text x="96605000.000000" y="94856362.000000"
transform="scale(-1 1) translate(-193210000.000000 0)"
textLength="2709762.000000" font-size="1333333.000000" lengthAdjust="spacingAndGlyphs"
text-anchor="middle" opacity="0">C73</text>
<g class="stroked-text"><desc>C73</desc>
<path d="M97247857 94713504
L97295476 94761123
L97438333 94808742
L97533571 94808742
L97676428 94761123
L97771666 94665885
L97819285 94570647
L97866904 94380171
L97866904 94237314
L97819285 94046838
L97771666 93951600
L97676428 93856362
L97533571 93808742
L97438333 93808742
L97295476 93856362
L97247857 93903981
" />
<path d="M96914523 93808742
L96247857 93808742
L96676428 94808742
" />
<path d="M95962142 93808742
L95343095 93808742
L95676428 94189695
L95533571 94189695
L95438333 94237314
L95390714 94284933
L95343095 94380171
L95343095 94618266
L95390714 94713504
L95438333 94761123
L95533571 94808742
L95819285 94808742
L95914523 94761123
L95962142 94713504
" />
</g><g transform="rotate(-90.000000 130060000.000000 93050000.000000)">
<text x="130060000.000000" y="93550000.000000"
transform="scale(-1 1) translate(-260120000.000000 0)"
textLength="2709762.000000" font-size="1333333.000000" lengthAdjust="spacingAndGlyphs"
text-anchor="middle" opacity="0">C72</text>
</g>
<g class="stroked-text"><desc>C72</desc>
<path d="M130417142 92407142
L130464761 92359523
L130512380 92216666
L130512380 92121428
L130464761 91978571
L130369523 91883333
L130274285 91835714
L130083809 91788095
L129940952 91788095
L129750476 91835714
L129655238 91883333
L129560000 91978571
L129512380 92121428
L129512380 92216666
L129560000 92359523
L129607619 92407142
" />
<path d="M129512380 92740476
L129512380 93407142
L130512380 92978571
" />
<path d="M129607619 93740476
L129560000 93788095
L129512380 93883333
L129512380 94121428
L129560000 94216666
L129607619 94264285
L129702857 94311904
L129798095 94311904
L129940952 94264285
L130512380 93692857
L130512380 94311904
" />
</g><text x="102451000.000000" y="98060000.000000"
transform="scale(-1 1) translate(-204902000.000000 0)"
textLength="2709762.000000" font-size="1333333.000000" lengthAdjust="spacingAndGlyphs"
text-anchor="middle" opacity="0">R51</text>
<g class="stroked-text"><desc>R51</desc>
<path d="M103093857 98012380
L103427190 97536190
" />
<path d="M103665285 98012380
L103665285 97012380
L103284333 97012380
L103189095 97060000
L103141476 97107619
L103093857 97202857
L103093857 97345714
L103141476 97440952
L103189095 97488571
L103284333 97536190
L103665285 97536190
" />
<path d="M102189095 97012380
L102665285 97012380
L102712904 97488571
L102665285 97440952
L102570047 97393333
L102331952 97393333
L102236714 97440952
L102189095 97488571
L102141476 97583809
L102141476 97821904
L102189095 97917142
L102236714 97964761
L102331952 98012380
L102570047 98012380
L102665285 97964761
L102712904 97917142
" />
<path d="M101189095 98012380
L101760523 98012380
" />
<path d="M101474809 98012380
L101474809 97012380
L101570047 97155238
L101665285 97250476
L101760523 97298095
" />
</g><text x="102451000.000000" y="97260000.000000"
transform="scale(-1 1) translate(-204902000.000000 0)"
textLength="2709762.000000" font-size="1333333.000000" lengthAdjust="spacingAndGlyphs"
text-anchor="middle" opacity="0">R47</text>
<g class="stroked-text"><desc>R47</desc>
<path d="M103093857 97212380
L103427190 96736190
" />
<path d="M103665285 97212380
L103665285 96212380
L103284333 96212380
L103189095 96260000
L103141476 96307619
L103093857 96402857
L103093857 96545714
L103141476 96640952
L103189095 96688571
L103284333 96736190
L103665285 96736190
" />
<path d="M102236714 96545714
L102236714 97212380
" />
<path d="M102474809 96164761
L102712904 96879047
L102093857 96879047
" />
<path d="M101808142 96212380
L101141476 96212380
L101570047 97212380
" />
</g><g transform="rotate(-90.000000 109955000.000000 93388000.000000)">
<text x="109955000.000000" y="93888000.000000"
transform="scale(-1 1) translate(-219910000.000000 0)"
textLength="2709762.000000" font-size="1333333.000000" lengthAdjust="spacingAndGlyphs"
text-anchor="middle" opacity="0">R59</text>
</g>
<g class="stroked-text"><desc>R59</desc>
<path d="M110407380 92745142
L109931190 92411809
" />
<path d="M110407380 92173714
L109407380 92173714
L109407380 92554666
L109455000 92649904
L109502619 92697523
L109597857 92745142
L109740714 92745142
L109835952 92697523
L109883571 92649904
L109931190 92554666
L109931190 92173714
" />
<path d="M109407380 93649904
L109407380 93173714
L109883571 93126095
L109835952 93173714
L109788333 93268952
L109788333 93507047
L109835952 93602285
L109883571 93649904
L109978809 93697523
L110216904 93697523
L110312142 93649904
L110359761 93602285
L110407380 93507047
L110407380 93268952
L110359761 93173714
L110312142 93126095
" />
<path d="M110407380 94173714
L110407380 94364190
L110359761 94459428
L110312142 94507047
L110169285 94602285
L109978809 94649904
L109597857 94649904
L109502619 94602285
L109455000 94554666
L109407380 94459428
L109407380 94268952
L109455000 94173714
L109502619 94126095
L109597857 94078476
L109835952 94078476
L109931190 94126095
L109978809 94173714
L110026428 94268952
L110026428 94459428
L109978809 94554666
L109931190 94602285
L109835952 94649904
" />
</g><text x="102431000.000000" y="90070000.000000"
transform="scale(-1 1) translate(-204862000.000000 0)"
textLength="2709762.000000" font-size="1333333.000000" lengthAdjust="spacingAndGlyphs"
text-anchor="middle" opacity="0">C85</text>
<g class="stroked-text"><desc>C85</desc>
<path d="M103073857 89927142
L103121476 89974761
L103264333 90022380
L103359571 90022380
L103502428 89974761
L103597666 89879523
L103645285 89784285
L103692904 89593809
L103692904 89450952
L103645285 89260476
L103597666 89165238
L103502428 89070000
L103359571 89022380
L103264333 89022380
L103121476 89070000
L103073857 89117619
" />
<path d="M102502428 89450952
L102597666 89403333
L102645285 89355714
L102692904 89260476
L102692904 89212857
L102645285 89117619
L102597666 89070000
L102502428 89022380
L102311952 89022380
L102216714 89070000
L102169095 89117619
L102121476 89212857
L102121476 89260476
L102169095 89355714
L102216714 89403333
L102311952 89450952
L102502428 89450952
L102597666 89498571
L102645285 89546190
L102692904 89641428
L102692904 89831904
L102645285 89927142
L102597666 89974761
L102502428 90022380
L102311952 90022380
L102216714 89974761
L102169095 89927142
L102121476 89831904
L102121476 89641428
L102169095 89546190
L102216714 89498571
L102311952 89450952
" />
<path d="M101216714 89022380
L101692904 89022380
L101740523 89498571
L101692904 89450952
L101597666 89403333
L101359571 89403333
L101264333 89450952
L101216714 89498571
L101169095 89593809
L101169095 89831904
L101216714 89927142
L101264333 89974761
L101359571 90022380
L101597666 90022380
L101692904 89974761
L101740523 89927142
" />
</g><text x="125708000.000000" y="92424000.000000"
transform="scale(-1 1) translate(-251416000.000000 0)"
textLength="2709762.000000" font-size="1333333.000000" lengthAdjust="spacingAndGlyphs"
text-anchor="middle" opacity="0">C78</text>
<g class="stroked-text"><desc>C78</desc>
<path d="M126350857 92281142
L126398476 92328761
L126541333 92376380
L126636571 92376380
L126779428 92328761
L126874666 92233523
L126922285 92138285
L126969904 91947809
L126969904 91804952
L126922285 91614476
L126874666 91519238
L126779428 91424000
L126636571 91376380
L126541333 91376380
L126398476 91424000
L126350857 91471619
" />
<path d="M126017523 91376380
L125350857 91376380
L125779428 92376380
" />
<path d="M124827047 91804952
L124922285 91757333
L124969904 91709714
L125017523 91614476
L125017523 91566857
L124969904 91471619
L124922285 91424000
L124827047 91376380
L124636571 91376380
L124541333 91424000
L124493714 91471619
L124446095 91566857
L124446095 91614476
L124493714 91709714
L124541333 91757333
L124636571 91804952
L124827047 91804952
L124922285 91852571
L124969904 91900190
L125017523 91995428
L125017523 92185904
L124969904 92281142
L124922285 92328761
L124827047 92376380
L124636571 92376380
L124541333 92328761
L124493714 92281142
L124446095 92185904
L124446095 91995428
L124493714 91900190
L124541333 91852571
L124636571 91804952
" />
</g><text x="99375000.000000" y="93250000.000000"
transform="scale(-1 1) translate(-198750000.000000 0)"
textLength="1566905.000000" font-size="1333333.000000" lengthAdjust="spacingAndGlyphs"
text-anchor="middle" opacity="0">L6</text>
<g class="stroked-text"><desc>L6</desc>
<path d="M99541666 93202380
L100017857 93202380
L100017857 92202380
" />
<path d="M98779761 92202380
L98970238 92202380
L99065476 92250000
L99113095 92297619
L99208333 92440476
L99255952 92630952
L99255952 93011904
L99208333 93107142
L99160714 93154761
L99065476 93202380
L98875000 93202380
L98779761 93154761
L98732142 93107142
L98684523 93011904
L98684523 92773809
L98732142 92678571
L98779761 92630952
L98875000 92583333
L99065476 92583333
L99160714 92630952
L99208333 92678571
L99255952 92773809
" />
</g><text x="114475000.000000" y="90530000.000000"
transform="scale(-1 1) translate(-228950000.000000 0)"
textLength="1805000.000000" font-size="1333333.000000" lengthAdjust="spacingAndGlyphs"
text-anchor="middle" opacity="0">U6</text>
<g class="stroked-text"><desc>U6</desc>
<path d="M115236904 89482380
L115236904 90291904
L115189285 90387142
L115141666 90434761
L115046428 90482380
L114855952 90482380
L114760714 90434761
L114713095 90387142
L114665476 90291904
L114665476 89482380
" />
<path d="M113760714 89482380
L113951190 89482380
L114046428 89530000
L114094047 89577619
L114189285 89720476
L114236904 89910952
L114236904 90291904
L114189285 90387142
L114141666 90434761
L114046428 90482380
L113855952 90482380
L113760714 90434761
L113713095 90387142
L113665476 90291904
L113665476 90053809
L113713095 89958571
L113760714 89910952
L113855952 89863333
L114046428 89863333
L114141666 89910952
L114189285 89958571
L114236904 90053809
" />
</g><text x="114375000.000000" y="88650000.000000"
transform="scale(-1 1) translate(-228750000.000000 0)"
textLength="2709762.000000" font-size="1333333.000000" lengthAdjust="spacingAndGlyphs"
text-anchor="middle" opacity="0">C83</text>
<g class="stroked-text"><desc>C83</desc>
<path d="M115017857 88507142
L115065476 88554761
L115208333 88602380
L115303571 88602380
L115446428 88554761
L115541666 88459523
L115589285 88364285
L115636904 88173809
L115636904 88030952
L115589285 87840476
L115541666 87745238
L115446428 87650000
L115303571 87602380
L115208333 87602380
L115065476 87650000
L115017857 87697619
" />
<path d="M114446428 88030952
L114541666 87983333
L114589285 87935714
L114636904 87840476
L114636904 87792857
L114589285 87697619
L114541666 87650000
L114446428 87602380
L114255952 87602380
L114160714 87650000
L114113095 87697619
L114065476 87792857
L114065476 87840476
L114113095 87935714
L114160714 87983333
L114255952 88030952
L114446428 88030952
L114541666 88078571
L114589285 88126190
L114636904 88221428
L114636904 88411904
L114589285 88507142
L114541666 88554761
L114446428 88602380
L114255952 88602380
L114160714 88554761
L114113095 88507142
L114065476 88411904
L114065476 88221428
L114113095 88126190
L114160714 88078571
L114255952 88030952
" />
<path d="M113732142 87602380
L113113095 87602380
L113446428 87983333
L113303571 87983333
L113208333 88030952
L113160714 88078571
L113113095 88173809
L113113095 88411904
L113160714 88507142
L113208333 88554761
L113303571 88602380
L113589285 88602380
L113684523 88554761
L113732142 88507142
" />
</g><text x="102431000.000000" y="94070000.000000"
transform="scale(-1 1) translate(-204862000.000000 0)"
textLength="2709762.000000" font-size="1333333.000000" lengthAdjust="spacingAndGlyphs"
text-anchor="middle" opacity="0">C74</text>
<g class="stroked-text"><desc>C74</desc>
<path d="M103073857 93927142
L103121476 93974761
L103264333 94022380
L103359571 94022380
L103502428 93974761
L103597666 93879523
L103645285 93784285
L103692904 93593809
L103692904 93450952
L103645285 93260476
L103597666 93165238
L103502428 93070000
L103359571 93022380
L103264333 93022380
L103121476 93070000
L103073857 93117619
" />
<path d="M102740523 93022380
L102073857 93022380
L102502428 94022380
" />
<path d="M101264333 93355714
L101264333 94022380
" />
<path d="M101502428 92974761
L101740523 93689047
L101121476 93689047
" />
</g><text x="96605000.000000" y="93250908.000000"
transform="scale(-1 1) translate(-193210000.000000 0)"
textLength="2709762.000000" font-size="1333333.000000" lengthAdjust="spacingAndGlyphs"
text-anchor="middle" opacity="0">C76</text>
<g class="stroked-text"><desc>C76</desc>
<path d="M97247857 93108050
L97295476 93155669
L97438333 93203288
L97533571 93203288
L97676428 93155669
L97771666 93060431
L97819285 92965193
L97866904 92774717
L97866904 92631860
L97819285 92441384
L97771666 92346146
L97676428 92250908
L97533571 92203288
L97438333 92203288
L97295476 92250908
L97247857 92298527
" />
<path d="M96914523 92203288
L96247857 92203288
L96676428 93203288
" />
<path d="M95438333 92203288
L95628809 92203288
L95724047 92250908
L95771666 92298527
L95866904 92441384
L95914523 92631860
L95914523 93012812
L95866904 93108050
L95819285 93155669
L95724047 93203288
L95533571 93203288
L95438333 93155669
L95390714 93108050
L95343095 93012812
L95343095 92774717
L95390714 92679479
L95438333 92631860
L95533571 92584241
L95724047 92584241
L95819285 92631860
L95866904 92679479
L95914523 92774717
" />
</g><g transform="rotate(-90.000000 111363000.000000 95078000.000000)">
<text x="111363000.000000" y="95578000.000000"
transform="scale(-1 1) translate(-222726000.000000 0)"
textLength="2709762.000000" font-size="1333333.000000" lengthAdjust="spacingAndGlyphs"
text-anchor="middle" opacity="0">R55</text>
</g>
<g class="stroked-text"><desc>R55</desc>
<path d="M111815380 94435142
L111339190 94101809
" />
<path d="M111815380 93863714
L110815380 93863714
L110815380 94244666
L110863000 94339904
L110910619 94387523
L111005857 94435142
L111148714 94435142
L111243952 94387523
L111291571 94339904
L111339190 94244666
L111339190 93863714
" />
<path d="M110815380 95339904
L110815380 94863714
L111291571 94816095
L111243952 94863714
L111196333 94958952
L111196333 95197047
L111243952 95292285
L111291571 95339904
L111386809 95387523
L111624904 95387523
L111720142 95339904
L111767761 95292285
L111815380 95197047
L111815380 94958952
L111767761 94863714
L111720142 94816095
" />
<path d="M110815380 96292285
L110815380 95816095
L111291571 95768476
L111243952 95816095
L111196333 95911333
L111196333 96149428
L111243952 96244666
L111291571 96292285
L111386809 96339904
L111624904 96339904
L111720142 96292285
L111767761 96244666
L111815380 96149428
L111815380 95911333
L111767761 95816095
L111720142 95768476
" />
</g><g transform="rotate(-90.000000 110905000.000000 93388000.000000)">
<text x="110905000.000000" y="93888000.000000"
transform="scale(-1 1) translate(-221810000.000000 0)"
textLength="2709762.000000" font-size="1333333.000000" lengthAdjust="spacingAndGlyphs"
text-anchor="middle" opacity="0">R58</text>
</g>
<g class="stroked-text"><desc>R58</desc>
<path d="M111357380 92745142
L110881190 92411809
" />
<path d="M111357380 92173714
L110357380 92173714
L110357380 92554666
L110405000 92649904
L110452619 92697523
L110547857 92745142
L110690714 92745142
L110785952 92697523
L110833571 92649904
L110881190 92554666
L110881190 92173714
" />
<path d="M110357380 93649904
L110357380 93173714
L110833571 93126095
L110785952 93173714
L110738333 93268952
L110738333 93507047
L110785952 93602285
L110833571 93649904
L110928809 93697523
L111166904 93697523
L111262142 93649904
L111309761 93602285
L111357380 93507047
L111357380 93268952
L111309761 93173714
L111262142 93126095
" />
<path d="M110785952 94268952
L110738333 94173714
L110690714 94126095
L110595476 94078476
L110547857 94078476
L110452619 94126095
L110405000 94173714
L110357380 94268952
L110357380 94459428
L110405000 94554666
L110452619 94602285
L110547857 94649904
L110595476 94649904
L110690714 94602285
L110738333 94554666
L110785952 94459428
L110785952 94268952
L110833571 94173714
L110881190 94126095
L110976428 94078476
L111166904 94078476
L111262142 94126095
L111309761 94173714
L111357380 94268952
L111357380 94459428
L111309761 94554666
L111262142 94602285
L111166904 94649904
L110976428 94649904
L110881190 94602285
L110833571 94554666
L110785952 94459428
" />
</g><text x="111175000.000000" y="88650000.000000"
transform="scale(-1 1) translate(-222350000.000000 0)"
textLength="2709762.000000" font-size="1333333.000000" lengthAdjust="spacingAndGlyphs"
text-anchor="middle" opacity="0">C80</text>
<g class="stroked-text"><desc>C80</desc>
<path d="M111817857 88507142
L111865476 88554761
L112008333 88602380
L112103571 88602380
L112246428 88554761
L112341666 88459523
L112389285 88364285
L112436904 88173809
L112436904 88030952
L112389285 87840476
L112341666 87745238
L112246428 87650000
L112103571 87602380
L112008333 87602380
L111865476 87650000
L111817857 87697619
" />
<path d="M111246428 88030952
L111341666 87983333
L111389285 87935714
L111436904 87840476
L111436904 87792857
L111389285 87697619
L111341666 87650000
L111246428 87602380
L111055952 87602380
L110960714 87650000
L110913095 87697619
L110865476 87792857
L110865476 87840476
L110913095 87935714
L110960714 87983333
L111055952 88030952
L111246428 88030952
L111341666 88078571
L111389285 88126190
L111436904 88221428
L111436904 88411904
L111389285 88507142
L111341666 88554761
L111246428 88602380
L111055952 88602380
L110960714 88554761
L110913095 88507142
L110865476 88411904
L110865476 88221428
L110913095 88126190
L110960714 88078571
L111055952 88030952
" />
<path d="M110246428 87602380
L110151190 87602380
L110055952 87650000
L110008333 87697619
L109960714 87792857
L109913095 87983333
L109913095 88221428
L109960714 88411904
L110008333 88507142
L110055952 88554761
L110151190 88602380
L110246428 88602380
L110341666 88554761
L110389285 88507142
L110436904 88411904
L110484523 88221428
L110484523 87983333
L110436904 87792857
L110389285 87697619
L110341666 87650000
L110246428 87602380
" />
</g><text x="102451000.000000" y="95660000.000000"
transform="scale(-1 1) translate(-204902000.000000 0)"
textLength="2709762.000000" font-size="1333333.000000" lengthAdjust="spacingAndGlyphs"
text-anchor="middle" opacity="0">R48</text>
<g class="stroked-text"><desc>R48</desc>
<path d="M103093857 95612380
L103427190 95136190
" />
<path d="M103665285 95612380
L103665285 94612380
L103284333 94612380
L103189095 94660000
L103141476 94707619
L103093857 94802857
L103093857 94945714
L103141476 95040952
L103189095 95088571
L103284333 95136190
L103665285 95136190
" />
<path d="M102236714 94945714
L102236714 95612380
" />
<path d="M102474809 94564761
L102712904 95279047
L102093857 95279047
" />
<path d="M101570047 95040952
L101665285 94993333
L101712904 94945714
L101760523 94850476
L101760523 94802857
L101712904 94707619
L101665285 94660000
L101570047 94612380
L101379571 94612380
L101284333 94660000
L101236714 94707619
L101189095 94802857
L101189095 94850476
L101236714 94945714
L101284333 94993333
L101379571 95040952
L101570047 95040952
L101665285 95088571
L101712904 95136190
L101760523 95231428
L101760523 95421904
L101712904 95517142
L101665285 95564761
L101570047 95612380
L101379571 95612380
L101284333 95564761
L101236714 95517142
L101189095 95421904
L101189095 95231428
L101236714 95136190
L101284333 95088571
L101379571 95040952
" />
</g><g transform="rotate(-90.000000 96775000.000000 97987500.000000)">
<text x="96775000.000000" y="98487500.000000"
transform="scale(-1 1) translate(-193550000.000000 0)"
textLength="1805000.000000" font-size="1333333.000000" lengthAdjust="spacingAndGlyphs"
text-anchor="middle" opacity="0">U4</text>
</g>
<g class="stroked-text"><desc>U4</desc>
<path d="M96227380 97225595
L97036904 97225595
L97132142 97273214
L97179761 97320833
L97227380 97416071
L97227380 97606547
L97179761 97701785
L97132142 97749404
L97036904 97797023
L96227380 97797023
" />
<path d="M96560714 98701785
L97227380 98701785
" />
<path d="M96179761 98463690
L96894047 98225595
L96894047 98844642
" />
</g><text x="114175000.000000" y="93900000.000000"
transform="scale(-1 1) translate(-228350000.000000 0)"
textLength="2709762.000000" font-size="1333333.000000" lengthAdjust="spacingAndGlyphs"
text-anchor="middle" opacity="0">C67</text>
<g class="stroked-text"><desc>C67</desc>
<path d="M114817857 93757142
L114865476 93804761
L115008333 93852380
L115103571 93852380
L115246428 93804761
L115341666 93709523
L115389285 93614285
L115436904 93423809
L115436904 93280952
L115389285 93090476
L115341666 92995238
L115246428 92900000
L115103571 92852380
L115008333 92852380
L114865476 92900000
L114817857 92947619
" />
<path d="M113960714 92852380
L114151190 92852380
L114246428 92900000
L114294047 92947619
L114389285 93090476
L114436904 93280952
L114436904 93661904
L114389285 93757142
L114341666 93804761
L114246428 93852380
L114055952 93852380
L113960714 93804761
L113913095 93757142
L113865476 93661904
L113865476 93423809
L113913095 93328571
L113960714 93280952
L114055952 93233333
L114246428 93233333
L114341666 93280952
L114389285 93328571
L114436904 93423809
" />
<path d="M113532142 92852380
L112865476 92852380
L113294047 93852380
" />
</g><g transform="rotate(-90.000000 60590000.000000 95380000.000000)">
<text x="60590000.000000" y="95880000.000000"
transform="scale(-1 1) translate(-121180000.000000 0)"
textLength="1805000.000000" font-size="1333333.000000" lengthAdjust="spacingAndGlyphs"
text-anchor="middle" opacity="0">U3</text>
</g>
<g class="stroked-text"><desc>U3</desc>
<path d="M60042380 94618095
L60851904 94618095
L60947142 94665714
L60994761 94713333
L61042380 94808571
L61042380 94999047
L60994761 95094285
L60947142 95141904
L60851904 95189523
L60042380 95189523
" />
<path d="M60042380 95570476
L60042380 96189523
L60423333 95856190
L60423333 95999047
L60470952 96094285
L60518571 96141904
L60613809 96189523
L60851904 96189523
L60947142 96141904
L60994761 96094285
L61042380 95999047
L61042380 95713333
L60994761 95618095
L60947142 95570476
" />
</g><text x="102875000.000000" y="88700000.000000"
transform="scale(-1 1) translate(-205750000.000000 0)"
textLength="2709762.000000" font-size="1333333.000000" lengthAdjust="spacingAndGlyphs"
text-anchor="middle" opacity="0">C88</text>
<g class="stroked-text"><desc>C88</desc>
<path d="M103517857 88557142
L103565476 88604761
L103708333 88652380
L103803571 88652380
L103946428 88604761
L104041666 88509523
L104089285 88414285
L104136904 88223809
L104136904 88080952
L104089285 87890476
L104041666 87795238
L103946428 87700000
L103803571 87652380
L103708333 87652380
L103565476 87700000
L103517857 87747619
" />
<path d="M102946428 88080952
L103041666 88033333
L103089285 87985714
L103136904 87890476
L103136904 87842857
L103089285 87747619
L103041666 87700000
L102946428 87652380
L102755952 87652380
L102660714 87700000
L102613095 87747619
L102565476 87842857
L102565476 87890476
L102613095 87985714
L102660714 88033333
L102755952 88080952
L102946428 88080952
L103041666 88128571
L103089285 88176190
L103136904 88271428
L103136904 88461904
L103089285 88557142
L103041666 88604761
L102946428 88652380
L102755952 88652380
L102660714 88604761
L102613095 88557142
L102565476 88461904
L102565476 88271428
L102613095 88176190
L102660714 88128571
L102755952 88080952
" />
<path d="M101994047 88080952
L102089285 88033333
L102136904 87985714
L102184523 87890476
L102184523 87842857
L102136904 87747619
L102089285 87700000
L101994047 87652380
L101803571 87652380
L101708333 87700000
L101660714 87747619
L101613095 87842857
L101613095 87890476
L101660714 87985714
L101708333 88033333
L101803571 88080952
L101994047 88080952
L102089285 88128571
L102136904 88176190
L102184523 88271428
L102184523 88461904
L102136904 88557142
L102089285 88604761
L101994047 88652380
L101803571 88652380
L101708333 88604761
L101660714 88557142
L101613095 88461904
L101613095 88271428
L101660714 88176190
L101708333 88128571
L101803571 88080952
" />
</g><text x="99675000.000000" y="91550000.000000"
transform="scale(-1 1) translate(-199350000.000000 0)"
textLength="2709762.000000" font-size="1333333.000000" lengthAdjust="spacingAndGlyphs"
text-anchor="middle" opacity="0">R64</text>
<g class="stroked-text"><desc>R64</desc>
<path d="M100317857 91502380
L100651190 91026190
" />
<path d="M100889285 91502380
L100889285 90502380
L100508333 90502380
L100413095 90550000
L100365476 90597619
L100317857 90692857
L100317857 90835714
L100365476 90930952
L100413095 90978571
L100508333 91026190
L100889285 91026190
" />
<path d="M99460714 90502380
L99651190 90502380
L99746428 90550000
L99794047 90597619
L99889285 90740476
L99936904 90930952
L99936904 91311904
L99889285 91407142
L99841666 91454761
L99746428 91502380
L99555952 91502380
L99460714 91454761
L99413095 91407142
L99365476 91311904
L99365476 91073809
L99413095 90978571
L99460714 90930952
L99555952 90883333
L99746428 90883333
L99841666 90930952
L99889285 90978571
L99936904 91073809
" />
<path d="M98508333 90835714
L98508333 91502380
" />
<path d="M98746428 90454761
L98984523 91169047
L98365476 91169047
" />
</g><text x="105175000.000000" y="93280000.000000"
transform="scale(-1 1) translate(-210350000.000000 0)"
textLength="1566905.000000" font-size="1333333.000000" lengthAdjust="spacingAndGlyphs"
text-anchor="middle" opacity="0">L7</text>
<g class="stroked-text"><desc>L7</desc>
<path d="M105341666 93232380
L105817857 93232380
L105817857 92232380
" />
<path d="M105103571 92232380
L104436904 92232380
L104865476 93232380
" />
</g><text x="102451000.000000" y="92460000.000000"
transform="scale(-1 1) translate(-204902000.000000 0)"
textLength="2709762.000000" font-size="1333333.000000" lengthAdjust="spacingAndGlyphs"
text-anchor="middle" opacity="0">R62</text>
<g class="stroked-text"><desc>R62</desc>
<path d="M103093857 92412380
L103427190 91936190
" />
<path d="M103665285 92412380
L103665285 91412380
L103284333 91412380
L103189095 91460000
L103141476 91507619
L103093857 91602857
L103093857 91745714
L103141476 91840952
L103189095 91888571
L103284333 91936190
L103665285 91936190
" />
<path d="M102236714 91412380
L102427190 91412380
L102522428 91460000
L102570047 91507619
L102665285 91650476
L102712904 91840952
L102712904 92221904
L102665285 92317142
L102617666 92364761
L102522428 92412380
L102331952 92412380
L102236714 92364761
L102189095 92317142
L102141476 92221904
L102141476 91983809
L102189095 91888571
L102236714 91840952
L102331952 91793333
L102522428 91793333
L102617666 91840952
L102665285 91888571
L102712904 91983809
" />
<path d="M101760523 91507619
L101712904 91460000
L101617666 91412380
L101379571 91412380
L101284333 91460000
L101236714 91507619
L101189095 91602857
L101189095 91698095
L101236714 91840952
L101808142 92412380
L101189095 92412380
" />
</g><text x="102451000.000000" y="90860000.000000"
transform="scale(-1 1) translate(-204902000.000000 0)"
textLength="2709762.000000" font-size="1333333.000000" lengthAdjust="spacingAndGlyphs"
text-anchor="middle" opacity="0">R67</text>
<g class="stroked-text"><desc>R67</desc>
<path d="M103093857 90812380
L103427190 90336190
" />
<path d="M103665285 90812380
L103665285 89812380
L103284333 89812380
L103189095 89860000
L103141476 89907619
L103093857 90002857
L103093857 90145714
L103141476 90240952
L103189095 90288571
L103284333 90336190
L103665285 90336190
" />
<path d="M102236714 89812380
L102427190 89812380
L102522428 89860000
L102570047 89907619
L102665285 90050476
L102712904 90240952
L102712904 90621904
L102665285 90717142
L102617666 90764761
L102522428 90812380
L102331952 90812380
L102236714 90764761
L102189095 90717142
L102141476 90621904
L102141476 90383809
L102189095 90288571
L102236714 90240952
L102331952 90193333
L102522428 90193333
L102617666 90240952
L102665285 90288571
L102712904 90383809
" />
<path d="M101808142 89812380
L101141476 89812380
L101570047 90812380
" />
</g><text x="117575000.000000" y="88680000.000000"
transform="scale(-1 1) translate(-235150000.000000 0)"
textLength="2709762.000000" font-size="1333333.000000" lengthAdjust="spacingAndGlyphs"
text-anchor="middle" opacity="0">R72</text>
<g class="stroked-text"><desc>R72</desc>
<path d="M118217857 88632380
L118551190 88156190
" />
<path d="M118789285 88632380
L118789285 87632380
L118408333 87632380
L118313095 87680000
L118265476 87727619
L118217857 87822857
L118217857 87965714
L118265476 88060952
L118313095 88108571
L118408333 88156190
L118789285 88156190
" />
<path d="M117884523 87632380
L117217857 87632380
L117646428 88632380
" />
<path d="M116884523 87727619
L116836904 87680000
L116741666 87632380
L116503571 87632380
L116408333 87680000
L116360714 87727619
L116313095 87822857
L116313095 87918095
L116360714 88060952
L116932142 88632380
L116313095 88632380
" />
</g><text x="103209000.000000" y="99686000.000000"
transform="scale(-1 1) translate(-206418000.000000 0)"
textLength="2709762.000000" font-size="1333333.000000" lengthAdjust="spacingAndGlyphs"
text-anchor="middle" opacity="0">C70</text>
<g class="stroked-text"><desc>C70</desc>
<path d="M103851857 99543142
L103899476 99590761
L104042333 99638380
L104137571 99638380
L104280428 99590761
L104375666 99495523
L104423285 99400285
L104470904 99209809
L104470904 99066952
L104423285 98876476
L104375666 98781238
L104280428 98686000
L104137571 98638380
L104042333 98638380
L103899476 98686000
L103851857 98733619
" />
<path d="M103518523 98638380
L102851857 98638380
L103280428 99638380
" />
<path d="M102280428 98638380
L102185190 98638380
L102089952 98686000
L102042333 98733619
L101994714 98828857
L101947095 99019333
L101947095 99257428
L101994714 99447904
L102042333 99543142
L102089952 99590761
L102185190 99638380
L102280428 99638380
L102375666 99590761
L102423285 99543142
L102470904 99447904
L102518523 99257428
L102518523 99019333
L102470904 98828857
L102423285 98733619
L102375666 98686000
L102280428 98638380
" />
</g><text x="96625000.000000" y="94043635.000000"
transform="scale(-1 1) translate(-193250000.000000 0)"
textLength="2709762.000000" font-size="1333333.000000" lengthAdjust="spacingAndGlyphs"
text-anchor="middle" opacity="0">R56</text>
<g class="stroked-text"><desc>R56</desc>
<path d="M97267857 93996015
L97601190 93519825
" />
<path d="M97839285 93996015
L97839285 92996015
L97458333 92996015
L97363095 93043635
L97315476 93091254
L97267857 93186492
L97267857 93329349
L97315476 93424587
L97363095 93472206
L97458333 93519825
L97839285 93519825
" />
<path d="M96363095 92996015
L96839285 92996015
L96886904 93472206
L96839285 93424587
L96744047 93376968
L96505952 93376968
L96410714 93424587
L96363095 93472206
L96315476 93567444
L96315476 93805539
L96363095 93900777
L96410714 93948396
L96505952 93996015
L96744047 93996015
L96839285 93948396
L96886904 93900777
" />
<path d="M95458333 92996015
L95648809 92996015
L95744047 93043635
L95791666 93091254
L95886904 93234111
L95934523 93424587
L95934523 93805539
L95886904 93900777
L95839285 93948396
L95744047 93996015
L95553571 93996015
L95458333 93948396
L95410714 93900777
L95363095 93805539
L95363095 93567444
L95410714 93472206
L95458333 93424587
L95553571 93376968
L95744047 93376968
L95839285 93424587
L95886904 93472206
L95934523 93567444
" />
</g></g>
<g style="fill:#000000; fill-opacity:0.0; 
stroke:#000000; stroke-width:120000.000000; stroke-opacity:1; 
stroke-linecap:round; stroke-linejoin:round;">
<path d="M120325000 96630000
L119125000 96630000
" />
<path d="M119125000 91030000
L120325000 91030000
" />
<path d="M96778641 97501816
L96471359 97501816
" />
<path d="M96778641 96741816
L96471359 96741816
" />
<path d="M102604641 92710000
L102297359 92710000
" />
<path d="M102604641 91950000
L102297359 91950000
" />
<path d="M170939914 158846000
L170658754 158846000
" />
<path d="M170939914 157826000
L170658754 157826000
" />
<path d="M110765000 95187836
L110765000 94972164
" />
<path d="M111485000 95187836
L111485000 94972164
" />
<path d="M105584420 89120000
L105865580 89120000
" />
<path d="M105584420 90140000
L105865580 90140000
" />
<path d="M110555000 91803641
L110555000 91496359
" />
<path d="M109795000 91803641
L109795000 91496359
" />
<path d="M111715000 95187836
L111715000 94972164
" />
<path d="M112435000 95187836
L112435000 94972164
" />
<path d="M102604641 97510000
L102297359 97510000
" />
<path d="M102604641 96750000
L102297359 96750000
" />
<path d="M105702064 93465000
L105247936 93465000
" />
<path d="M105702064 91995000
L105247936 91995000
" />
<path d="M96778641 95939089
L96471359 95939089
" />
<path d="M96778641 96699089
L96471359 96699089
" />
<path d="M96778641 97544543
L96471359 97544543
" />
<path d="M96778641 98304543
L96471359 98304543
" />
<path d="M99902064 90315000
L99447936 90315000
" />
<path d="M99902064 91785000
L99447936 91785000
" />
<path d="M96778641 99149997
L96471359 99149997
" />
<path d="M96778641 99909997
L96471359 99909997
" />
<path d="M96778641 90320000
L96471359 90320000
" />
<path d="M96778641 91080000
L96471359 91080000
" />
<path d="M111485000 91777836
L111485000 91562164
" />
<path d="M110765000 91777836
L110765000 91562164
" />
<path d="M127634000 93157836
L127634000 92942164
" />
<path d="M128354000 93157836
L128354000 92942164
" />
<path d="M96778641 92685454
L96471359 92685454
" />
<path d="M96778641 91925454
L96471359 91925454
" />
<path d="M105297936 91815000
L105752064 91815000
" />
<path d="M105297936 90345000
L105752064 90345000
" />
<path d="M112455000 91803641
L112455000 91496359
" />
<path d="M111695000 91803641
L111695000 91496359
" />
<path d="M97190580 90110000
L96909420 90110000
" />
<path d="M97190580 89090000
L96909420 89090000
" />
<path d="M96712836 91862727
L96497164 91862727
" />
<path d="M96712836 91142727
L96497164 91142727
" />
<path d="M127378000 93050000
L127378000 93700000
" />
<path d="M124258000 93050000
L124258000 91375000
" />
<path d="M127378000 93050000
L127378000 92400000
" />
<path d="M124258000 93050000
L124258000 93700000
" />
<path d="M103365000 98030000
L103365000 96230000
" />
<path d="M106485000 98030000
L106485000 98830000
" />
<path d="M103365000 98030000
L103365000 98830000
" />
<path d="M106485000 98030000
L106485000 97230000
" />
<path d="M99784420 90110000
L100065580 90110000
" />
<path d="M99784420 89090000
L100065580 89090000
" />
<path d="M102604641 95150000
L102297359 95150000
" />
<path d="M102604641 95910000
L102297359 95910000
" />
<path d="M102604641 99150000
L102297359 99150000
" />
<path d="M102604641 99910000
L102297359 99910000
" />
<path d="M96778641 93488181
L96471359 93488181
" />
<path d="M96778641 92728181
L96471359 92728181
" />
<path d="M96778641 99107270
L96471359 99107270
" />
<path d="M96778641 98347270
L96471359 98347270
" />
<path d="M110553000 93280164
L110553000 93495836
" />
<path d="M109833000 93280164
L109833000 93495836
" />
<path d="M102538836 93570000
L102323164 93570000
" />
<path d="M102538836 94290000
L102323164 94290000
" />
<path d="M97586252 100115000
L97063748 100115000
" />
<path d="M97586252 101585000
L97063748 101585000
" />
<path d="M96712836 95876362
L96497164 95876362
" />
<path d="M96712836 95156362
L96497164 95156362
" />
<path d="M128540000 93157836
L128540000 92942164
" />
<path d="M129260000 93157836
L129260000 92942164
" />
<path d="M102604641 98350000
L102297359 98350000
" />
<path d="M102604641 99110000
L102297359 99110000
" />
<path d="M102604641 97550000
L102297359 97550000
" />
<path d="M102604641 98310000
L102297359 98310000
" />
<path d="M110745000 93234359
L110745000 93541641
" />
<path d="M111505000 93234359
L111505000 93541641
" />
<path d="M102538836 90370000
L102323164 90370000
" />
<path d="M102538836 91090000
L102323164 91090000
" />
<path d="M125600164 90404000
L125815836 90404000
" />
<path d="M125600164 91124000
L125815836 91124000
" />
<path d="M99636252 95910000
L99113748 95910000
" />
<path d="M99636252 93690000
L99113748 93690000
" />
<path d="M114475000 93990000
L115275000 93990000
" />
<path d="M114475000 93990000
L113675000 93990000
" />
<path d="M114475000 90870000
L113675000 90870000
" />
<path d="M114475000 90870000
L116275000 90870000
" />
<path d="M114636252 89095000
L114113748 89095000
" />
<path d="M114636252 90565000
L114113748 90565000
" />
<path d="M102538836 94370000
L102323164 94370000
" />
<path d="M102538836 95090000
L102323164 95090000
" />
<path d="M96712836 93550908
L96497164 93550908
" />
<path d="M96712836 94270908
L96497164 94270908
" />
<path d="M110573000 95231641
L110573000 94924359
" />
<path d="M109813000 95231641
L109813000 94924359
" />
<path d="M112455000 93234359
L112455000 93541641
" />
<path d="M111695000 93234359
L111695000 93541641
" />
<path d="M111436252 89095000
L110913748 89095000
" />
<path d="M111436252 90565000
L110913748 90565000
" />
<path d="M102604641 96710000
L102297359 96710000
" />
<path d="M102604641 95950000
L102297359 95950000
" />
<path d="M97615000 97987500
L97615000 96187500
" />
<path d="M100735000 97987500
L100735000 97187500
" />
<path d="M97615000 97987500
L97615000 98787500
" />
<path d="M100735000 97987500
L100735000 98787500
" />
<path d="M114436252 95815000
L113913748 95815000
" />
<path d="M114436252 94345000
L113913748 94345000
" />
<path d="M74710000 101250000
L71460000 101250000
" />
<path d="M61470000 101250000
L64720000 101250000
" />
<path d="M61470000 90630000
L62590000 89510000
" />
<path d="M74710000 92385000
L74710000 89510000
" />
<path d="M61470000 98375000
L61470000 101250000
" />
<path d="M61470000 98375000
L61470000 101250000
" />
<path d="M61470000 101250000
L64720000 101250000
" />
<path d="M61470000 98375000
L61470000 101250000
" />
<path d="M62590000 89510000
L64720000 89510000
" />
<path d="M61470000 92385000
L61470000 90630000
" />
<path d="M74710000 89510000
L71460000 89510000
" />
<path d="M74710000 98375000
L74710000 101250000
" />
<path d="M61470000 101250000
L64720000 101250000
" />
</g>
<g style="fill:#000000; fill-opacity:0.0; 
stroke:#000000; stroke-width:200000.000000; stroke-opacity:1; 
stroke-linecap:round; stroke-linejoin:round;">
<circle cx="61590000.000000" cy="89630000.000000" r="100000.000000" /> 
</g>
<g style="fill:#000000; fill-opacity:0.0; 
stroke:#000000; stroke-width:120000.000000; stroke-opacity:1; 
stroke-linecap:round; stroke-linejoin:round;">
<path d="M103015580 89120000
L102734420 89120000
" />
<path d="M103015580 90140000
L102734420 90140000
" />
<path d="M99902064 93435000
L99447936 93435000
" />
<path d="M99902064 91965000
L99447936 91965000
" />
<path d="M105436252 93720000
L104913748 93720000
" />
<path d="M105436252 95940000
L104913748 95940000
" />
<path d="M102604641 92750000
L102297359 92750000
" />
<path d="M102604641 93510000
L102297359 93510000
" />
<path d="M102604641 91150000
L102297359 91150000
" />
<path d="M102604641 91910000
L102297359 91910000
" />
<path d="M117802064 89095000
L117347936 89095000
" />
<path d="M117802064 90565000
L117347936 90565000
" />
<path d="M103470252 101601000
L102947748 101601000
" />
<path d="M103470252 100131000
L102947748 100131000
" />
<path d="M96778641 95093635
L96471359 95093635
" />
<path d="M96778641 94333635
L96471359 94333635
" />
<g >
</g>
<g >
</g>
<g >
</g>
<g >
</g>
<g >
</g>
<g >
</g>
<g >
</g>
<g >
</g>
<g >
</g>
<g >
</g>
<g >
</g>
<g >
</g>
<g >
</g>
<g >
</g>
<g >
</g>
<g >
</g>
<g >
</g>
<g >
</g>
<g >
</g>
<g >
</g>
<g >
</g>
<g >
</g>
<g >
</g>
<g >
</g>
<g >
</g>
<g >
</g>
<g >
</g>
<g >
</g>
<g >
</g>
<g >
</g>
<g >
</g>
<g >
</g>
<g >
</g>
<g >
</g>
<g >
</g>
<g >
</g>
<g >
</g>
<g >
</g>
<g >
</g>
<g >
</g>
<g >
</g>
<g >
</g>
<g >
</g>
<g >
</g>
<g >
</g>
<g >
</g>
<g >
</g>
<g >
</g>
<g >
</g>
<g >
</g>
<g >
</g>
<g >
</g>
<g >
</g>
<g >
</g>
<g >
</g>
<g >
</g>
<g >
</g>
<g >
</g>
<g >
</g>
<g >
</g>
<g >
</g>
<g >
</g>
<g >
</g>
<g >
</g>
<g >
</g>
<g >
</g>
<g >
</g>
<g >
</g>
<g >
</g>
<g >
</g>
<g >
</g>
<g >
</g>
<g >
</g>
<g >
</g>
<g >
</g>
<g >
</g>
<g >
</g>
<g >
</g>
<g >
</g>
<g >
</g>
<g >
</g>
<g >
</g>
<g >
</g>
<g >
</g>
<g >
</g>
<g >
</g>
<g >
</g>
<g >
</g>
<g >
</g>
<g >
</g>
<g >
</g>
<g >
</g>
<g >
</g>
<g >
</g>
<g >
</g>
<g >
</g>
<g >
</g>
<g >
</g>
<g >
</g>
<g >
</g>
<g >
</g>
<g >
</g>
<g >
</g>
<g >
</g>
<g >
</g>
<g >
</g>
<g >
</g>
<g >
</g>
<g >
</g>
<g >
</g>
<g >
</g>
<g >
</g>
<g >
</g>
<g >
</g>
<g >
</g>
<g >
</g>
<g >
</g>
<g >
</g>
<g >
</g>
<g >
</g>
<g >
</g>
<g >
</g>
<g >
</g>
<g >
</g>
<g >
</g>
<g >
</g>
<g >
</g>
<g >
</g>
<g >
</g>
<g >
</g>
<g >
</g>
<g >
</g>
<g >
</g>
<g >
</g>
<g >
</g>
<g >
</g>
<g >
</g>
<g >
</g>
<g >
</g>
<g >
</g>
<g >
</g>
<g >
</g>
<g >
</g>
<g >
</g>
<g >
</g>
<g >
</g>
<g >
</g>
<g >
</g>
<g >
</g>
<g >
</g>
<g >
</g>
<g >
</g>
<g >
</g>
<g >
</g>
<g >
</g>
<g >
</g>
<g >
</g>
<g >
</g>
<g >
</g>
<g >
</g>
<g >
</g>
<g >
</g>
<g >
</g>
<g >
</g>
<g >
</g>
<g >
</g>
<g >
</g>
<g >
</g>
<g >
</g>
<g >
</g>
<g >
</g>
<g >
</g>
<g >
</g>
<g >
</g>
<g >
</g>
<g >
</g>
<g >
</g>
<g >
</g>
<g >
</g>
<g >
</g>
<g >
</g>
<g >
</g>
<g >
</g>
<g >
</g>
<g >
</g>
<g >
</g>
<g >
</g>
<g >
</g>
</g> 
</svg>
