<?xml version="1.0" encoding="UTF-8" standalone="no"?>
<svg
   xmlns:dc="http://purl.org/dc/elements/1.1/"
   xmlns:cc="http://creativecommons.org/ns#"
   xmlns:rdf="http://www.w3.org/1999/02/22-rdf-syntax-ns#"
   xmlns:svg="http://www.w3.org/2000/svg"
   xmlns="http://www.w3.org/2000/svg"
   xmlns:sodipodi="http://sodipodi.sourceforge.net/DTD/sodipodi-0.dtd"
   xmlns:inkscape="http://www.inkscape.org/namespaces/inkscape"
   width="210mm"
   height="297mm"
   viewBox="0 0 210 297"
   version="1.1"
   id="svg8"
   inkscape:version="1.0.2 (e86c870879, 2021-01-15)"
   sodipodi:docname="Logo.svg">
  <defs
     id="defs2">
    <filter
       inkscape:collect="always"
       style="color-interpolation-filters:sRGB"
       id="filter1052"
       x="-8.8144467e-05"
       width="1.0001763"
       y="-0.00018791147"
       height="1.0003758">
      <feGaussianBlur
         inkscape:collect="always"
         stdDeviation="0.0060942064"
         id="feGaussianBlur1054" />
    </filter>
  </defs>
  <sodipodi:namedview
     id="base"
     pagecolor="#ffffff"
     bordercolor="#666666"
     borderopacity="1.0"
     inkscape:pageopacity="0.0"
     inkscape:pageshadow="2"
     inkscape:zoom="0.7"
     inkscape:cx="448.13975"
     inkscape:cy="472.84564"
     inkscape:document-units="mm"
     inkscape:current-layer="layer1"
     inkscape:document-rotation="0"
     showgrid="false"
     inkscape:window-width="2560"
     inkscape:window-height="1012"
     inkscape:window-x="0"
     inkscape:window-y="0"
     inkscape:window-maximized="1" />
  <metadata
     id="metadata5">
    <rdf:RDF>
      <cc:Work
         rdf:about="">
        <dc:format>image/svg+xml</dc:format>
        <dc:type
           rdf:resource="http://purl.org/dc/dcmitype/StillImage" />
        <dc:title></dc:title>
      </cc:Work>
    </rdf:RDF>
  </metadata>
  <g
     inkscape:label="Ebene 1"
     inkscape:groupmode="layer"
     id="layer1"
     style="filter:url(#filter1052)">
    <path
       d="m 20.074048,105.71243 c 0,0.0259 0.168551,0.63531 0.388965,1.34841 0.855723,2.90428 2.463445,6.04193 4.447167,8.72578 0.505654,0.67421 1.879997,2.20414 3.059857,3.384 3.098755,3.08579 6.314199,5.41958 10.878055,7.88302 1.620687,0.88166 5.238062,2.60607 5.44551,2.60607 0.05186,0 -0.544551,-0.36303 -1.335446,-0.81683 -6.690198,-3.82482 -11.52633,-8.12937 -13.471155,-12.00605 -0.388965,-0.752 -0.350069,-0.752 0.700137,0.0519 2.930203,2.24303 9.905642,6.98841 13.354465,9.10178 12.537638,7.68854 23.960244,12.55061 35.577332,15.14371 1.426205,0.31117 2.619031,0.55751 2.644962,0.51862 0.02593,-0.0259 -0.207448,-0.11669 -0.505655,-0.19449 -1.231722,-0.32413 -6.806887,-2.23006 -9.322194,-3.17654 -14.78067,-5.58813 -29.003823,-13.80826 -42.332358,-24.47887 -2.761651,-2.2171 -5.147303,-4.25268 -8.907298,-7.59778 -0.350069,-0.31117 -0.622344,-0.53159 -0.622344,-0.49269 z"
       id="path835"
       style="fill:#c51162;fill-opacity:1;stroke:none;stroke-width:0.0129655" />
    <path
       d="m 184.67107,106.86636 c -7.11806,6.39199 -14.8455,12.34316 -22.22287,17.08853 -11.40964,7.35144 -23.70093,13.15998 -35.96629,16.99777 -1.9189,0.59641 -2.72276,0.89462 -1.90593,0.7131 0.18152,-0.0389 1.38731,-0.31117 2.69682,-0.59641 12.78398,-2.85241 26.50148,-9.06288 40.21898,-18.1906 2.17821,-1.45213 6.37903,-4.40827 8.10344,-5.70482 0.7131,-0.54455 1.30952,-0.95944 1.33545,-0.93351 0.10372,0.10372 -0.99835,1.97075 -1.78924,3.02096 -2.28193,3.04689 -6.6902,6.58647 -11.79861,9.47778 -0.89462,0.50565 -1.58179,0.92055 -1.52993,0.92055 0.18152,0 3.56552,-1.58179 4.90096,-2.29489 10.3724,-5.51034 16.49212,-12.05792 18.92963,-20.29101 0.22042,-0.7131 0.376,-1.32248 0.36304,-1.34841 -0.0259,-0.013 -0.62235,0.49269 -1.33545,1.14096 z"
       id="path837"
       style="fill:#c51162;fill-opacity:1;stroke:none;stroke-width:0.0129655" />
    <path
       d="m 21.500253,121.30993 c 0,0.15558 2.696824,3.03392 4.019305,4.29158 3.734064,3.55255 6.534612,5.49737 10.942882,7.62371 2.99503,1.45214 11.163296,5.00469 11.474468,4.99172 0.0389,0 -0.972413,-0.54455 -2.255998,-1.20579 -1.283584,-0.66124 -2.774616,-1.4651 -3.306202,-1.77628 -4.745373,-2.74868 -9.451849,-6.54757 -9.011022,-7.26068 0.246344,-0.40193 3.474753,0.38897 9.127712,2.21711 1.089102,0.35006 2.009652,0.62234 2.035583,0.59641 0.02593,-0.0259 -0.376,-0.22042 -0.881654,-0.4149 -2.489376,-0.97241 -10.579848,-4.31751 -13.004396,-5.38068 -5.510338,-2.42455 -6.767992,-2.95613 -7.714473,-3.28027 -0.531585,-0.18152 -1.076137,-0.376 -1.192826,-0.4149 -0.129655,-0.0519 -0.233379,-0.0389 -0.233379,0.013 z"
       id="path839"
       style="fill:#c51162;fill-opacity:1;stroke:none;stroke-width:0.0129655" />
    <path
       d="m 183.18004,121.69889 c -1.20579,0.44083 -2.46345,0.97242 -7.50703,3.21545 -1.37434,0.60938 -5.09544,2.1782 -8.25902,3.47475 -3.15062,1.29655 -5.73075,2.37269 -5.71779,2.39862 0.0259,0.013 0.93352,-0.25931 2.03559,-0.62235 2.9691,-0.94648 6.26233,-1.89296 7.54592,-2.1393 1.8022,-0.35007 1.95779,-0.0908 0.72607,1.20579 -2.15228,2.256 -5.92524,4.82316 -11.25406,7.64964 -1.24469,0.66124 -2.23006,1.20579 -2.19117,1.20579 0.0908,0 4.33048,-1.77627 6.79393,-2.85241 2.39861,-1.03724 6.37902,-2.99503 7.72743,-3.79889 2.30786,-1.36137 4.97876,-3.42289 7.50703,-5.83447 1.25765,-1.19283 4.0193,-4.12303 4.0193,-4.27862 0,-0.12965 -0.0519,-0.11669 -1.4262,0.376 z"
       id="path841"
       style="fill:#c51162;fill-opacity:1;stroke:none;stroke-width:0.0129655" />
    <path
       d="m 47.690563,130.13943 c 0,0.22042 0.959447,1.95779 1.529929,2.76165 0.842757,1.2058 2.878341,3.24138 4.239719,4.26565 3.189512,2.39862 8.090471,4.78427 13.860119,6.74206 1.063171,0.36304 1.996687,0.66124 2.07448,0.66124 0.07779,0 -0.557517,-0.37599 -1.413239,-0.82979 -2.735721,-1.45213 -5.354752,-3.03392 -8.829506,-5.34178 -1.854066,-1.23173 -3.448823,-2.32083 -3.526616,-2.42455 -0.155586,-0.18152 0.751999,0.0648 7.299577,1.91889 1.348411,0.376 2.47641,0.67421 2.502341,0.66124 0.0389,-0.0519 -3.280271,-1.4651 -7.584817,-3.24137 -4.78427,-1.97076 -7.11806,-3.13765 -9.33516,-4.71944 -0.453793,-0.31118 -0.816827,-0.51862 -0.816827,-0.4538 z"
       id="path843"
       style="fill:#ff4081;fill-opacity:1;stroke:none;stroke-width:0.0129655" />
    <path
       d="m 157.05456,130.96923 c -1.77628,1.20579 -4.512,2.5931 -7.90896,4.00633 -5.80854,2.39862 -8.4924,3.53959 -8.45351,3.57848 0.013,0.0259 1.34842,-0.32413 2.94317,-0.77793 6.00303,-1.71144 7.00137,-1.97075 7.00137,-1.90593 0,0.10373 -6.6902,4.56386 -8.03861,5.35476 -2.1782,1.29655 -2.98206,1.75034 -4.47309,2.52827 -0.85573,0.44083 -1.49104,0.81682 -1.42621,0.81682 0.24634,0 4.26565,-1.3873 5.91227,-2.04854 7.0662,-2.82648 11.39667,-5.69186 14.0935,-9.29627 0.6742,-0.90758 1.94482,-3.18951 1.75034,-3.16358 -0.0519,0.013 -0.68717,0.4149 -1.40027,0.90759 z"
       id="path845"
       style="fill:#ff4081;fill-opacity:1;stroke:none;stroke-width:0.0129655" />
    <path
       d="m 23.315423,133.31598 c 1.996687,1.80221 6.677233,4.93986 9.542608,6.36606 3.565512,1.77627 8.505368,3.35807 16.116116,5.16027 1.465102,0.35007 2.670893,0.60938 2.696824,0.58345 0.02593,-0.013 -1.089102,-0.46676 -2.450479,-0.98538 -6.638336,-2.52827 -10.994744,-4.58979 -10.994744,-5.1862 0,-0.24634 0.609378,-0.27228 2.243031,-0.0778 0.933516,0.11669 3.254341,0.376 5.147304,0.59641 1.892963,0.22041 3.578478,0.42786 3.759995,0.46676 0.181517,0.0389 0.285241,0.0389 0.246344,0 -0.0389,-0.0519 -1.594756,-0.46676 -3.435857,-0.93352 -6.508681,-1.63365 -8.764678,-2.28193 -13.172948,-3.73406 -3.850754,-1.27062 -6.417923,-2.03559 -8.41461,-2.48938 -1.905928,-0.42786 -1.996687,-0.41489 -1.283584,0.23338 z"
       id="path847"
       style="fill:#c51162;fill-opacity:1;stroke:none;stroke-width:0.0129655" />
    <path
       d="m 181.81866,133.01777 c -1.97076,0.44083 -4.16193,1.07614 -7.84413,2.28193 -5.5233,1.81517 -7.71447,2.43752 -14.00274,4.00634 -2.58013,0.64828 -4.14896,1.10207 -3.11172,0.92055 0.51862,-0.0908 10.32054,-1.23172 10.63171,-1.23172 0.4149,0 0.47973,0.376 0.11669,0.66124 -0.54455,0.44083 -2.08744,1.23172 -3.81185,1.99669 -1.75035,0.77793 -6.65131,2.73572 -8.40165,3.37103 -0.54455,0.19448 -0.98538,0.376 -0.95945,0.40193 0.0648,0.0648 2.95614,-0.59642 5.79558,-1.32248 6.66427,-1.71145 11.34482,-3.37103 14.4306,-5.13434 3.05986,-1.76331 5.69186,-3.59144 8.5702,-5.96413 l 0.27228,-0.23338 -0.32414,0.013 c -0.18152,0 -0.7909,0.10372 -1.36138,0.23337 z"
       id="path849"
       style="fill:#c51162;fill-opacity:1;stroke:none;stroke-width:0.0129655" />
    <path
       d="m 52.500764,139.86356 c 1.828135,3.28027 4.706476,5.73075 9.387022,8.01268 2.515306,1.23172 4.369373,1.97075 7.066197,2.83944 2.178204,0.70014 5.70482,1.68552 5.769647,1.60772 0.02593,-0.0259 -0.337103,-0.22041 -0.816826,-0.42786 -1.413239,-0.59641 -6.054888,-2.9302 -7.870059,-3.95448 -1.944825,-1.0891 -5.769647,-3.37103 -5.769647,-3.42289 0,-0.0519 5.341786,1.03724 8.103438,1.65959 1.076136,0.24634 1.95779,0.42786 1.983721,0.40193 0.05186,-0.0519 -1.568825,-0.62235 -7.169921,-2.52828 -4.887994,-1.67254 -8.427576,-3.20247 -10.294607,-4.46013 -0.376,-0.25931 -0.713103,-0.46676 -0.751999,-0.46676 -0.02593,0 0.129655,0.33711 0.363034,0.73904 z"
       id="path851"
       style="fill:#ff4081;fill-opacity:1;stroke:none;stroke-width:0.0129655" />
    <path
       d="m 152.9056,139.79873 c -2.20414,1.33545 -5.01765,2.5542 -9.20551,3.99337 -4.8491,1.65959 -7.97378,2.76166 -7.94785,2.80055 0.0259,0.013 0.76496,-0.12965 1.65958,-0.3371 2.52828,-0.57048 7.98675,-1.68552 8.24606,-1.68552 0.73903,0 -8.9073,5.32883 -12.80991,7.07917 -0.76497,0.3371 -1.37435,0.64827 -1.34842,0.66124 0.0259,0.0259 0.99835,-0.20745 2.16524,-0.53159 9.42592,-2.5931 15.75309,-5.99006 18.79998,-10.08716 0.73903,-0.99834 1.60772,-2.42454 1.52993,-2.48937 -0.0259,-0.0259 -0.51862,0.24634 -1.0891,0.59641 z"
       id="path853"
       style="fill:#ff4081;fill-opacity:1;stroke:none;stroke-width:0.0129655" />
    <path
       d="m 69.991223,140.87487 c 0,0.25931 1.127998,1.65958 1.646618,2.04855 0.726069,0.51862 2.33379,1.34841 3.759995,1.91889 1.205792,0.49269 4.317512,1.54289 4.511994,1.54289 0.06483,-0.013 -0.479723,-0.25931 -1.231722,-0.57048 -1.711446,-0.70013 -3.098755,-1.40027 -4.019305,-2.02262 -0.713103,-0.49268 -1.568825,-1.29655 -1.374343,-1.29655 0.142621,0 3.280271,0.376 3.837788,0.4538 1.400274,0.20745 -1.633653,-0.7909 -4.537925,-1.504 -1.179861,-0.28524 -2.243032,-0.55752 -2.359721,-0.58345 -0.129655,-0.0389 -0.233379,-0.0389 -0.233379,0.013 z"
       id="path855"
       style="fill:#c51162;fill-opacity:1;stroke:none;stroke-width:0.0129655" />
    <path
       d="m 133.66479,141.39349 c -2.19117,0.55751 -5.13433,1.4651 -5.04358,1.56882 0.0259,0.0259 0.97242,-0.0778 2.10041,-0.22041 1.128,-0.14262 2.07448,-0.23338 2.11338,-0.20745 0.0259,0.0389 -0.27227,0.35007 -0.6742,0.7131 -0.77793,0.68718 -2.9691,1.88 -4.82317,2.632 -0.59641,0.23338 -1.05021,0.44083 -1.03724,0.46676 0.0648,0.0519 2.07448,-0.59641 3.65627,-1.17986 1.89296,-0.70014 4.08413,-1.81517 4.79724,-2.43752 0.79089,-0.70013 1.62068,-1.94482 1.27061,-1.90592 -0.0648,0 -1.11503,0.25931 -2.35972,0.57048 z"
       id="path857"
       style="fill:#c51162;fill-opacity:1;stroke:none;stroke-width:0.0129655" />
    <path
       d="m 26.595694,144.9979 c 0.414896,0.35006 3.526616,2.23006 5.017649,3.04689 3.837788,2.07448 8.401644,3.66924 12.900672,4.48606 2.670893,0.47973 9.296264,1.29655 10.100125,1.23172 0.07779,0 -0.933516,-0.28524 -2.255997,-0.62234 -5.225097,-1.34841 -8.207162,-2.30786 -9.9964,-3.20248 -0.842758,-0.41489 -1.67255,-1.02427 -1.67255,-1.20579 0,-0.0519 1.153929,-0.14262 2.567169,-0.18152 3.474754,-0.11669 9.581505,-0.46675 10.139021,-0.58344 0.350069,-0.0778 0.0389,-0.14262 -1.361378,-0.25931 -6.923577,-0.62235 -15.532669,-1.62069 -19.124112,-2.2171 -2.2171,-0.376 -3.734064,-0.57049 -5.70482,-0.72607 l -0.972412,-0.0648 z"
       id="path859"
       style="fill:#c51162;fill-opacity:1;stroke:none;stroke-width:0.0129655" />
    <path
       d="m 178.51246,144.79045 c -1.1669,0.0908 -3.87669,0.44083 -5.70482,0.752 -3.09876,0.53158 -11.07254,1.45213 -18.67032,2.16524 -1.36138,0.11669 -1.64662,0.18151 -1.29655,0.25931 0.55751,0.11669 6.56054,0.46675 10.02233,0.58344 1.40027,0.0389 2.5542,0.12966 2.5542,0.18152 0,0.4149 -2.1393,1.55586 -4.33047,2.30786 -1.51697,0.53158 -4.44717,1.36138 -7.98675,2.28193 -1.69848,0.42786 -1.72441,0.44082 -0.84276,0.376 5.53627,-0.4149 11.35778,-1.38731 14.58619,-2.41159 2.87834,-0.92055 6.35309,-2.46344 9.14068,-4.0582 1.64661,-0.94648 3.95447,-2.38565 3.95447,-2.47641 0,-0.0519 -0.35007,-0.0389 -1.4262,0.0389 z"
       id="path861"
       style="fill:#c51162;fill-opacity:1;stroke:none;stroke-width:0.0129655" />
    <path
       d="m 73.349288,147.85031 c 0.881653,1.28358 2.385651,2.19117 5.199165,3.12468 1.478067,0.49269 4.823166,1.40028 4.887994,1.32248 0.02593,-0.0259 -0.674206,-0.28524 -1.542895,-0.58344 -2.5931,-0.88166 -5.419579,-2.38566 -5.419579,-2.89131 0,-0.0648 0.155586,-0.0908 0.363034,-0.0519 0.544551,0.10372 3.863719,0.24634 3.785926,0.15558 -0.207448,-0.20745 -6.780957,-1.63365 -7.545921,-1.63365 -0.06483,0 0.05186,0.24634 0.272276,0.55752 z"
       id="path863"
       style="fill:#c51162;fill-opacity:1;stroke:none;stroke-width:0.0129655" />
    <path
       d="m 130.9939,147.62989 c -1.93186,0.36304 -5.51034,1.20579 -5.51034,1.30952 0,0.0778 3.21545,-0.0648 3.87669,-0.16855 0.64827,-0.10373 0.46676,0.16855 -0.58345,0.88165 -1.01131,0.68717 -2.37269,1.32248 -4.65461,2.12634 -0.85573,0.31117 -1.49104,0.55752 -1.42621,0.55752 0.0778,0.013 0.80386,-0.16855 1.62069,-0.376 3.47475,-0.90759 6.49571,-2.10041 7.54592,-2.9691 0.25931,-0.22041 0.64827,-0.70014 0.86869,-1.05021 0.47972,-0.76496 0.59641,-0.75199 -1.73738,-0.31117 z"
       id="path865"
       style="fill:#c51162;fill-opacity:1;stroke:none;stroke-width:0.0129655" />
    <path
       d="m 57.673998,149.57472 c 0,0.19448 1.387308,1.8022 2.243031,2.5931 3.643306,3.37103 9.866746,5.62702 18.942596,6.85875 2.152273,0.28524 3.734064,0.41489 2.99503,0.23338 -2.230066,-0.54455 -7.532955,-2.38566 -11.279985,-3.90262 -3.383995,-1.37434 -3.954477,-1.62069 -3.902615,-1.68551 0.0389,-0.0259 2.243031,0.10372 4.92689,0.2982 2.683858,0.19448 4.939855,0.32414 5.017648,0.29821 0.06483,-0.0259 -1.607722,-0.38897 -3.734063,-0.80386 -7.156957,-1.40028 -8.220128,-1.62069 -9.983435,-2.08745 -1.763309,-0.46676 -3.824823,-1.17986 -4.732408,-1.63365 -0.272275,-0.14262 -0.492689,-0.22041 -0.492689,-0.16855 z"
       id="path867"
       style="fill:#ff4081;fill-opacity:1;stroke:none;stroke-width:0.0129655" />
    <path
       d="m 146.98036,150.15817 c -2.50234,1.0113 -4.70647,1.54289 -12.71915,3.11172 -2.69683,0.51862 -4.83614,0.97241 -4.75834,0.99834 0.12965,0.0519 3.28027,-0.15559 7.83116,-0.49269 2.26896,-0.16855 2.32082,-0.16855 1.76331,0.11669 -1.82814,0.95945 -12.04495,4.69351 -14.23612,5.19916 -2.00965,0.46676 0.98538,0.20745 4.64165,-0.40193 6.54758,-1.0891 11.17626,-2.63199 14.65101,-4.91392 1.55586,-1.02427 4.79724,-4.21379 4.18786,-4.13599 -0.0519,0.013 -0.67421,0.24634 -1.36138,0.51862 z"
       id="path869"
       style="fill:#ff4081;fill-opacity:1;stroke:none;stroke-width:0.0129655" />
    <path
       d="m 78.548453,155.20174 c 0.324137,0.376 0.842757,0.85573 1.153929,1.06318 1.166895,0.72606 3.358065,1.4262 6.430889,2.03558 2.230066,0.42786 2.748685,0.44083 1.231722,0.0259 -2.774617,-0.76496 -4.576821,-1.51696 -5.510338,-2.28193 l -0.388965,-0.31117 2.204136,-0.013 c 1.270618,0 2.126341,-0.0519 2.009652,-0.11668 -0.401931,-0.23338 -4.369374,-0.84276 -6.495716,-0.99835 l -1.218756,-0.0908 z"
       id="path871"
       style="fill:#c51162;fill-opacity:1;stroke:none;stroke-width:0.0129655" />
    <path
       d="m 125.35391,154.76092 c -1.68552,0.20745 -3.3451,0.47972 -4.40827,0.72607 -0.70014,0.16855 -0.66124,0.16855 1.4651,0.23337 l 2.19117,0.0648 -0.31117,0.27228 c -0.7909,0.7131 -2.73572,1.51696 -5.28993,2.19117 -1.8022,0.47972 -1.81517,0.55751 -0.0648,0.24634 2.83944,-0.49269 5.53626,-1.23172 6.81985,-1.88 0.85572,-0.42786 1.38731,-0.84275 1.93186,-1.55586 l 0.41489,-0.50565 -0.63531,0.013 c -0.3371,0.013 -1.29655,0.0908 -2.11337,0.19448 z"
       id="path873"
       style="fill:#c51162;fill-opacity:1;stroke:none;stroke-width:0.0129655" />
    <path
       d="m 33.817478,155.44809 c 0,0.0908 2.281928,1.58179 3.37103,2.23007 1.95779,1.14096 4.511994,2.30785 6.677232,3.03392 3.539582,1.19283 8.233093,1.72441 13.808258,1.56883 2.5931,-0.0648 7.494059,-0.40193 7.610748,-0.51862 0.01297,-0.013 -0.998343,-0.10373 -2.268962,-0.19448 -7.156956,-0.50566 -12.913638,-1.52993 -15.804945,-2.81352 -0.622344,-0.28524 -0.713102,-0.36303 -0.492689,-0.44083 0.285241,-0.10372 5.289924,-0.64827 9.399988,-1.0113 l 2.528273,-0.23338 -5.575165,-0.15559 c -7.338474,-0.20745 -12.498743,-0.58345 -17.594184,-1.29655 -0.920551,-0.12965 -1.659584,-0.20745 -1.659584,-0.16855 z"
       id="path875"
       style="fill:#c51162;fill-opacity:1;stroke:none;stroke-width:0.0129655" />
    <path
       d="m 170.6035,155.61664 c -4.96578,0.70014 -10.19088,1.0891 -17.56825,1.29655 -3.05986,0.0908 -5.36772,0.18152 -5.12137,0.20745 3.57848,0.27227 10.96881,1.03724 11.40964,1.17986 0.2982,0.10372 0.27227,0.12965 -0.42786,0.45379 -2.86538,1.27062 -8.50537,2.28193 -15.80495,2.82648 -1.19282,0.0778 -2.15227,0.16855 -2.13931,0.18152 0.013,0.0259 1.07614,0.14262 2.35973,0.25931 1.65958,0.15558 3.59144,0.22041 6.67723,0.23338 3.79889,0 4.61572,-0.0389 6.49571,-0.28524 4.61572,-0.62235 8.31089,-1.90593 12.49875,-4.34345 0.72606,-0.41489 3.05985,-1.91889 3.29323,-2.11337 0.15559,-0.12966 -0.19448,-0.11669 -1.67255,0.10372 z"
       id="path877"
       style="fill:#c51162;fill-opacity:1;stroke:none;stroke-width:0.0129655" />
    <path
       d="m 68.966948,160.63429 c 0.700137,0.53158 2.463445,1.4651 3.617375,1.89296 2.281928,0.84276 4.66758,1.32248 7.973782,1.60772 1.867033,0.16856 8.077507,0.19449 7.908956,0.0389 -0.07779,-0.0648 -0.764965,-0.18152 -1.55586,-0.27227 -2.593101,-0.28525 -10.942883,-1.504 -11.046607,-1.62069 -0.02593,-0.013 1.815171,-0.4149 4.071167,-0.86869 l 4.123029,-0.82979 -1.166894,-0.0778 c -0.63531,-0.0519 -4.110064,-0.0907 -7.701508,-0.10372 -6.391991,-0.013 -6.521646,-0.013 -6.22344,0.23338 z"
       id="path879"
       style="fill:#ff4081;fill-opacity:1;stroke:none;stroke-width:0.0129655" />
    <path
       d="m 123.08495,160.50463 -1.03724,0.0778 4.12302,0.82979 c 2.256,0.45379 4.0971,0.85572 4.07117,0.86869 -0.10372,0.11669 -8.4535,1.33544 -11.0466,1.62069 -2.68386,0.2982 -1.84111,0.40193 2.52827,0.3371 4.18785,-0.0648 5.79558,-0.20745 8.23309,-0.68717 2.52827,-0.50566 4.95282,-1.42621 6.6513,-2.54124 0.44083,-0.28524 0.80386,-0.54455 0.80386,-0.57048 0,-0.0778 -13.15998,-0.013 -14.32687,0.0648 z"
       id="path881"
       style="fill:#ff4081;fill-opacity:1;stroke:none;stroke-width:0.0129655" />
    <path
       d="m 61.369165,164.35539 c -1.063171,0.23338 -4.110063,0.89462 -6.755025,1.47806 -3.785926,0.81683 -5.147304,1.1669 -6.391991,1.64662 -0.855723,0.32414 -1.568826,0.63531 -1.568826,0.68717 0,0.11669 1.581791,0.58345 2.917237,0.86869 0.803861,0.16855 1.737378,0.22042 4.084133,0.22042 2.774617,0 3.293237,-0.0389 5.795578,-0.4149 2.774618,-0.4149 10.035297,-1.71145 10.994744,-1.95779 l 0.51862,-0.14262 -0.583447,0.0648 c -0.324138,0.0259 -1.763308,0.16855 -3.176547,0.31117 -6.469785,0.64827 -10.891021,0.70014 -12.278329,0.12965 -0.713103,-0.28524 -0.51862,-0.40193 2.424549,-1.40027 0.998343,-0.35007 2.606065,-0.84276 3.565512,-1.11503 0.959447,-0.27228 2.009653,-0.55752 2.33379,-0.66124 1.063171,-0.29821 0.09076,-0.15559 -1.879998,0.28524 z"
       id="path883"
       style="fill:#c51162;fill-opacity:1;stroke:none;stroke-width:0.0129655" />
    <path
       d="m 142.48133,163.94049 c 0.0259,0.0259 0.85573,0.25931 1.85407,0.51862 1.91889,0.50566 5.57516,1.68552 6.59944,2.13931 0.36303,0.15559 0.60938,0.3371 0.58345,0.44083 -0.24635,0.73903 -5.78262,0.77793 -12.61543,0.0778 -1.34842,-0.12966 -2.74869,-0.27228 -3.11172,-0.31117 -1.15393,-0.11669 -0.4538,0.0389 3.11172,0.70013 4.11006,0.76497 7.68854,1.33545 10.30757,1.64662 2.19117,0.24635 5.78261,0.18152 7.39033,-0.14262 1.24469,-0.24634 2.85241,-0.72607 2.85241,-0.84276 0,-0.15558 -3.12468,-1.28358 -4.34344,-1.55586 -1.49103,-0.35006 -12.51171,-2.72275 -12.61543,-2.72275 -0.0389,0 -0.0389,0.0259 -0.013,0.0519 z"
       id="path885"
       style="fill:#c51162;fill-opacity:1;stroke:none;stroke-width:0.0129655" />
    <path
       d="m 76.214663,167.42821 c -7.999713,2.58014 -13.950878,4.66758 -14.300946,5.00468 -0.142621,0.12966 2.87834,0.40193 4.511993,0.40193 3.643306,0 12.200536,-1.93185 20.86149,-4.68054 1.335447,-0.42786 2.411583,-0.80386 2.385652,-0.82979 -0.06483,-0.0648 -1.905928,0.28524 -3.409926,0.64827 -6.430889,1.55586 -10.164953,2.17821 -13.22481,2.19117 -1.140965,0.013 -2.19117,-0.0389 -2.320825,-0.0908 -0.194483,-0.0778 0.51862,-0.41489 2.982065,-1.40027 1.776273,-0.7131 3.345099,-1.34841 3.48772,-1.41324 0.492689,-0.20745 -0.11669,-0.11669 -0.972413,0.16855 z"
       id="path887"
       style="fill:#c51162;fill-opacity:1;stroke:none;stroke-width:0.0129655" />
    <path
       d="m 128.7379,167.18187 c 0.0778,0.0778 5.82151,2.35972 6.37903,2.54123 1.58179,0.50566 -1.75034,0.68718 -4.96579,0.27228 -2.34675,-0.29821 -6.26233,-1.06317 -9.2055,-1.77627 -2.15227,-0.53159 -4.48606,-0.97242 -4.31751,-0.8298 0.15558,0.12966 3.39696,1.15393 6.84578,2.13931 7.24771,2.08745 13.21184,3.3062 16.20688,3.3062 1.58179,0 4.7713,-0.27227 4.64164,-0.38896 -0.38896,-0.35007 -6.06785,-2.35972 -11.52633,-4.08413 -3.63034,-1.14097 -4.20082,-1.30952 -4.0582,-1.17986 z"
       id="path889"
       style="fill:#c51162;fill-opacity:1;stroke:none;stroke-width:0.0129655" />
    <g
       id="g996"
       transform="matrix(1.4544473,0,0,1.4544473,68.1875,116.63844)">
      <path
         fill="#388e3c"
         d="m 28,15 c 0,0 -0.5,-1 1,-2 4.9,-2.8 8.6,-0.5 11,-3 -0.2,3.8 -2,5 -2,5 z m -3,0.7 C 22.4,7.4 28.2,4 28.5,3.9 L 28,3 28.5,3.9 27.5,2.1 C 27.4,2.1 20,6.4 23,16.3 Z M 17,15 V 14 C 16.2,8.5 11.6,12.1 7,10 c 0.6,2.7 3,5 3,5 z"
         id="path928" />
      <path
         fill="#4caf50"
         d="m 32,16 h -7 c -0.3,-1 -0.5,-2.3 -0.6,-3.2 1.3,-2 5.5,-1.7 8.6,-6.8 2.4,5.5 -1,10 -1,10 z m -9,0 c 0,0 0.4,0.7 0,-2 -0.8,-5.6 -5.6,-3.5 -8,-10 -4.9,7.9 1,12 1,12 z"
         id="path930" />
      <g
         id="g962">
	<circle
   fill="#ff4081"
   cx="15"
   cy="33"
   r="5"
   id="circle932" />

	<circle
   fill="#ff4081"
   cx="24"
   cy="34"
   r="5"
   id="circle934" />

	<circle
   fill="#ff4081"
   cx="33"
   cy="33"
   r="5"
   id="circle936" />

	<circle
   fill="#ff4081"
   cx="28"
   cy="27"
   r="5"
   id="circle938" />

	<circle
   fill="#ff4081"
   cx="36"
   cy="26"
   r="5"
   id="circle940" />

	<circle
   fill="#ff4081"
   cx="12"
   cy="26"
   r="5"
   id="circle942" />

	<circle
   fill="#ff4081"
   cx="20"
   cy="27"
   r="5"
   id="circle944" />

	<circle
   fill="#ff4081"
   cx="11"
   cy="19"
   r="5"
   id="circle946" />

	<circle
   fill="#ff4081"
   cx="37"
   cy="19"
   r="5"
   id="circle948" />

	<circle
   fill="#ff4081"
   cx="17"
   cy="19"
   r="5"
   id="circle950" />

	<circle
   fill="#ff4081"
   cx="31"
   cy="19"
   r="5"
   id="circle952" />

	<circle
   fill="#ff4081"
   cx="24"
   cy="19"
   r="5"
   id="circle954" />

	<circle
   fill="#ff4081"
   cx="24"
   cy="41"
   r="5"
   id="circle956" />

	<circle
   fill="#ff4081"
   cx="29"
   cy="38"
   r="5"
   id="circle958" />

	<circle
   fill="#ff4081"
   cx="19"
   cy="38"
   r="5"
   id="circle960" />

</g>
      <path
         fill="#c51162"
         d="m 24,38 c 0,0 0,0 0,0 -0.2,-0.1 -0.3,-0.1 -0.4,-0.1 0.1,0.1 0.3,0.1 0.4,0.1 z"
         id="path964" />
      <path
         fill="#c51162"
         d="m 42,19 c 0,-2.8 -2.2,-5 -5,-5 1.7,0 3,3.3 3,5 0,1.7 -1.3,3 -3,3 -0.6,0 -1.2,-0.2 -1.7,-0.5 0.4,-0.7 0.7,-1.6 0.7,-2.5 0,-1.2 -0.4,-2.3 -1.1,-3.1 0.5,-1 1.3,-1.9 2.1,-1.9 -1.1,0 -2.2,0.4 -3,1 -0.8,-0.6 -1.9,-1 -3,-1 1.7,0 3,3.3 3,5 0,1.7 -1.3,3 -3,3 -1,0 -1.8,-0.5 -2.4,-1.2 C 28.8,20.2 29,19.6 29,19 29,18.2 28.8,17.5 28.5,16.8 29,15.4 29.9,14 31,14 29.6,14 28.4,14.6 27.5,15.4 26.6,14.6 25.4,14 24,14 c 1.7,0 3,3.3 3,5 0,1.7 -1.3,3 -3,3 -1.7,0 -3,-1.3 -3,-3 0,-1.7 1.3,-5 3,-5 -1.4,0 -2.6,0.6 -3.5,1.4 C 19.6,14.6 18.4,14 17,14 c 1.1,0 2,1.4 2.5,2.8 -0.3,0.7 -0.5,1.4 -0.5,2.2 0,0.6 0.1,1.3 0.4,1.8 C 18.8,21.5 18,22 17,22 c -1.7,0 -3,-1.3 -3,-3 0,-1.7 1.3,-5 3,-5 -1.1,0 -2.2,0.4 -3,1 -0.8,-0.6 -1.9,-1 -3,-1 0.8,0 1.6,0.8 2.1,1.9 -0.7,0.8 -1.1,1.9 -1.1,3.1 0,0.9 0.2,1.7 0.7,2.5 -0.5,0.3 -1,0.5 -1.7,0.5 -1.7,0 -3,-1.3 -3,-3 0,-1.7 1.3,-5 3,-5 -2.8,0 -5,2.2 -5,5 0,1.6 0.8,3.1 2,4 -0.6,0.8 -1,1.9 -1,3 0,2.2 1.5,4.1 3.5,4.8 -0.3,0.6 -0.5,1.4 -0.5,2.2 0,2.4 1.7,4.4 4,4.9 0,0 0,0.1 0,0.1 0,2.8 2.2,5 5,5 0.1,0 0.3,0 0.4,0 0.8,1.8 2.5,3 4.6,3 2.1,0 3.8,-1.3 4.6,-3 0.1,0 0.3,0 0.4,0 2.8,0 5,-2.2 5,-5 0,0 0,-0.1 0,-0.1 2.3,-0.5 4,-2.5 4,-4.9 0,-0.8 -0.2,-1.6 -0.6,-2.2 2.1,-0.6 3.6,-2.5 3.6,-4.8 0,-1.1 -0.4,-2.2 -1,-3 1.2,-0.9 2,-2.4 2,-4 z m -15.9,4.5 c 0.5,-0.2 1,-0.6 1.4,-1 0.7,0.7 1.6,1.2 2.6,1.4 0.5,1 0.9,2.3 0.9,3.1 0,1.7 -1.3,3 -3,3 -1.7,0 -3,-1.3 -3,-3 0,-0.9 0.4,-2.4 1.1,-3.5 z M 24,24 c 0,0 0,0 0,0 0,0 0,0 0,0 0,0 0,0 0,0 0,0 0,0 0,0 z m 0,6 c 0.6,0.8 1.5,1.5 2.5,1.8 0.3,0.8 0.5,1.6 0.5,2.3 0,1.7 -1.3,3 -3,3 -1.7,0 -3,-1.3 -3,-3 0,-0.6 0.2,-1.4 0.5,-2.3 1,-0.4 1.9,-1 2.5,-1.8 z m -6.1,-6.1 c 1,-0.2 1.9,-0.7 2.6,-1.4 0.4,0.4 0.9,0.7 1.4,1 0.7,1.1 1.1,2.5 1.1,3.5 0,1.7 -1.3,3 -3,3 -1.7,0 -3,-1.3 -3,-3 0,-0.8 0.3,-2 0.9,-3.1 z M 9,26 c 0,-0.6 0.2,-1.4 0.5,-2.3 0.5,0.2 1,0.3 1.5,0.3 1.1,0 2.2,-0.4 3,-1 0.1,0.1 0.2,0.1 0.3,0.2 0.5,1 0.7,2.1 0.7,2.8 0,1.7 -1.3,3 -3,3 -1.7,0 -3,-1.3 -3,-3 z m 6,10 c -1.7,0 -3,-1.3 -3,-3 0,-0.6 0.2,-1.3 0.4,-2 1.3,-0.1 2.4,-0.7 3.2,-1.6 0.5,0.9 1.2,1.6 2.1,2 0.2,0.6 0.3,1.2 0.3,1.6 0,1.7 -1.3,3 -3,3 z m 1,2 c 0,0 0,-0.1 0,-0.1 v 0 c 1.4,-0.3 2.5,-1.1 3.2,-2.3 0.2,0.5 0.4,1 0.8,1.4 l 1.3,1.2 c 0.2,0.1 0.4,0.2 0.6,0.3 -0.2,1.4 -1.4,2.5 -2.9,2.5 -1.7,0 -3,-1.3 -3,-3 z m 8,6 c -1.1,0 -2.1,-0.7 -2.6,-1.6 1.3,-0.7 2.2,-1.9 2.5,-3.4 0,0 0.1,0 0.1,0 0,0 0.1,0 0.1,0 0.3,1.5 1.3,2.7 2.5,3.4 C 26.1,43.3 25.1,44 24,44 Z m 5,-3 c -1.5,0 -2.7,-1.1 -2.9,-2.5 0.2,-0.1 0.4,-0.2 0.6,-0.3 L 28,37 c 0.3,-0.4 0.6,-0.9 0.8,-1.4 0.7,1.1 1.8,2 3.2,2.3 h 0.1 c 0,0 0,0.1 0,0.1 -0.1,1.7 -1.4,3 -3.1,3 z m 4,-5 c -1.7,0 -3,-1.3 -3,-3 0,-0.4 0.1,-1 0.3,-1.6 0.9,-0.5 1.6,-1.2 2.1,-2 0.8,0.9 2,1.4 3.2,1.6 0.3,0.7 0.4,1.5 0.4,2 0,1.7 -1.3,3 -3,3 z m 3,-7 c -1.7,0 -3,-1.3 -3,-3 0,-0.8 0.3,-1.8 0.7,-2.8 0.1,-0.1 0.2,-0.1 0.3,-0.2 0.8,0.6 1.9,1 3,1 0.5,0 1,-0.1 1.5,-0.3 0.3,0.8 0.5,1.6 0.5,2.3 0,1.7 -1.3,3 -3,3 z"
         id="path966" />
    </g>
  </g>
</svg>
